<?xml version="1.0" encoding="UTF-8"?>
<svg version="1.1" xmlns="http://www.w3.org/2000/svg" width="842" height="596">
<path d="M0 0 C0.74378906 0.09152344 1.48757813 0.18304687 2.25390625 0.27734375 C17.43327693 2.7653069 30.75198711 13.29847821 39.9609375 25.078125 C48.94603476 37.95332184 53.52200176 53.31666335 51.375 69 C49.04107706 80.96722901 43.51171482 93.10730047 34 101 C31.81640625 100.65234375 31.81640625 100.65234375 30 100 C29.83825166 95.63279487 29.9535093 91.86992003 31 87.625 C33.76193515 74.63589917 33.23970937 60.16949139 26.5625 48.484375 C21.6690055 41.56760874 14.20990823 34.89464449 5.9375 32.5 C-3.77102971 31.26717083 -12.12936706 31.80943862 -20.875 36.5625 C-26.94902802 43.52976743 -27.55796231 51.7533165 -27.25 60.625 C-27.23195313 61.62917969 -27.21390625 62.63335937 -27.1953125 63.66796875 C-27.14873997 66.11302652 -27.08337028 68.55596812 -27 71 C-27.60690674 70.7119751 -28.21381348 70.4239502 -28.83911133 70.12719727 C-29.6411499 69.75651123 -30.44318848 69.3858252 -31.26953125 69.00390625 C-32.45832886 68.4481189 -32.45832886 68.4481189 -33.67114258 67.88110352 C-37.19442462 66.54809954 -39.44630058 66.86013415 -43 68 C-51.55173137 73.53347324 -53.37709653 81.58331563 -55.484375 91.14453125 C-56.08885032 94.00843401 -56.08885032 94.00843401 -56 97 C-55.80664062 96.22914062 -55.61328125 95.45828125 -55.4140625 94.6640625 C-55.02347656 93.15972656 -55.02347656 93.15972656 -54.625 91.625 C-54.24214844 90.12839844 -54.24214844 90.12839844 -53.8515625 88.6015625 C-53 86 -53 86 -51 84 C-47.64530354 83.53550357 -44.31737169 83.21245481 -40.94140625 82.96484375 C-37.47112717 82.62612406 -35.35120607 82.28256644 -32.6015625 80.0703125 C-31.80878906 79.04550781 -31.80878906 79.04550781 -31 78 C-30.4225 77.2575 -29.845 76.515 -29.25 75.75 C-28.8375 75.1725 -28.425 74.595 -28 74 C-26.39660152 77.11771927 -25.81025859 78.39011689 -26.875 81.8125 C-27.24625 82.534375 -27.6175 83.25625 -28 84 C-26.68 83.34 -25.36 82.68 -24 82 C-24.350625 81.113125 -24.70125 80.22625 -25.0625 79.3125 C-26.01755602 75.93796874 -25.97151132 74.30313848 -25 71 C-23.02 71 -21.04 71 -19 71 C-19.391875 69.824375 -19.78375 68.64875 -20.1875 67.4375 C-20.98974474 64.11726083 -20.96306389 62.84697898 -20.125 59.375 C-17.42931687 55.09362091 -14.19983977 52.72341154 -10 50 C-16.33415064 51.26683013 -19.90133888 55.30463643 -24 60 C-24.33 60.66 -24.66 61.32 -25 62 C-25.66 62 -26.32 62 -27 62 C-26.76144128 54.48540044 -25.06660099 49.63897851 -20 44 C-12.05263324 37.13769807 -4.53757809 35.82171102 5.6796875 35.63671875 C6.44539063 35.75660156 7.21109375 35.87648437 8 36 C10.20691827 39.3103774 10.29659859 40.50565686 10.3125 44.375 C10.32925781 45.31085938 10.34601563 46.24671875 10.36328125 47.2109375 C9.9181801 50.62816567 9.15284757 52.30011739 7 55 C4.73121192 56.43736885 2.56982481 57.67219757 0.1875 58.875 C-6.29720293 62.35105315 -11.56842289 65.70526867 -14 73 C-13.07960938 73.31710938 -12.15921875 73.63421875 -11.2109375 73.9609375 C8.04467084 80.93058594 22.85915092 93.37856897 31.93603516 111.91113281 C36.74918149 122.53755979 39.65146772 133.43231483 41 145 C40.43657596 134.99023242 39.8168046 124.99282227 39 115 C41.56886134 117.46610688 43.91980385 120.05356733 46.23046875 122.7578125 C49.99859881 127.09492518 54.092094 130.98382861 58.3125 134.875 C59.8158069 136.28180152 61.31841399 137.68935124 62.8203125 139.09765625 C64.76153693 140.91303638 66.70345502 142.72710531 68.65917969 144.52685547 C75.0149063 150.38663958 79.32879337 156.15018419 83 164 C80.60563649 148.03757658 70.0311889 138.47430759 58.875 127.875 C40.25169117 110.17647123 40.25169117 110.17647123 39 103 C40.23346281 98.95232225 42.27944665 96.12795211 44.875 92.8125 C52.99654325 81.8513592 55.37242428 70.43005196 55.0625 57 C55.02824898 55.12507367 54.99806729 53.25006697 54.97265625 51.375 C54.95468994 50.55773437 54.93672363 49.74046875 54.91821289 48.8984375 C55 47 55 47 56 46 C58.35313555 45.92728259 60.70833668 45.91629132 63.0625 45.9375 C64.35285156 45.94652344 65.64320313 45.95554688 66.97265625 45.96484375 C67.97167969 45.97644531 68.97070312 45.98804688 70 46 C65.75066073 43.9205361 63.28052401 42.95209539 58.5625 43.3125 C56.29296875 43.16796875 56.29296875 43.16796875 54 42 C50.36759171 37.27683182 47.98231672 31.5759903 46 26 C46.33 25.01 46.66 24.02 47 23 C57.6745744 18.48309148 74.03542225 17.04010697 85 21 C91.83056319 23.99731439 98.28087499 27.12855018 104 32 C103.566875 31.44570313 103.13375 30.89140625 102.6875 30.3203125 C101.8521875 29.23363281 101.8521875 29.23363281 101 28.125 C100.443125 27.40570313 99.88625 26.68640625 99.3125 25.9453125 C98 24 98 24 98 22 C106.77327248 23.34252924 114.54788253 29.14135222 120 36 C123.4119181 41.1698881 124.56179078 45.8650709 125 52 C123.741875 51.835 122.48375 51.67 121.1875 51.5 C118.73543415 51.17841759 116.48349306 51 114 51 C114.6290625 51.20753906 115.258125 51.41507813 115.90625 51.62890625 C123.753643 54.45349499 129.73586217 58.10851311 134 65.4375 C134.33 66.283125 134.66 67.12875 135 68 C134.67 68.33 134.34 68.66 134 69 C134.58007812 69.42410156 135.16015625 69.84820312 135.7578125 70.28515625 C140.87605086 74.12805799 145.01441048 77.99246445 149 83 C147.92598892 85.91517292 147.22189824 87.77810176 145 90 C141.79406801 89.71712365 139.07508062 88.6381142 136.125 87.4375 C132.22191079 85.90891373 129.16391745 85.73975516 125 86 C128.04098602 89.39356411 131.0145626 91.19602323 135.125 93.125 C140.80555556 95.80555556 140.80555556 95.80555556 143 98 C145.01391146 97.32768352 145.01391146 97.32768352 147 96 C147.91160093 93.82791412 147.91160093 93.82791412 148.25 91.375 C148.39953125 90.55773437 148.5490625 89.74046875 148.703125 88.8984375 C148.85007812 87.95871094 148.85007812 87.95871094 149 87 C152 87 152 87 153.6875 88.4375 C155.76043042 92.48464987 156.06550756 95.66058651 155 100 C153.0242932 104.11249452 150.54832055 107.92176276 148.06640625 111.7421875 C145.92102724 114.83507843 145.92102724 114.83507843 145 118 C144.01 118 143.02 118 142 118 C141.01 115.69 140.02 113.38 139 111 C138.401875 111.7425 137.80375 112.485 137.1875 113.25 C133.31170824 117.15901283 128.12631426 118.3736693 123 120 C121.783125 120.4125 120.56625 120.825 119.3125 121.25 C118.549375 121.4975 117.78625 121.745 117 122 C117 122.66 117 123.32 117 124 C117.78375 123.835 118.5675 123.67 119.375 123.5 C126.4762675 122.52051483 132.79539954 121.86359969 139 126 C142.50912952 129.03492282 143.83614113 131.08473159 144.23828125 135.78515625 C144.52388481 148.39680824 140.68681345 156.58429219 132.3515625 165.828125 C130.96151485 167.27919913 129.48686508 168.64830447 128 170 C127.34 170 126.68 170 126 170 C125.85304688 169.02160156 125.70609375 168.04320312 125.5546875 167.03515625 C124.33863665 159.68915902 123.07092846 153.85486191 118.40234375 147.83203125 C117 146 117 146 116.06640625 143.88671875 C114.71485447 141.49551176 113.50330235 141.04226715 111 140 C110.40960937 139.67 109.81921875 139.34 109.2109375 139 C104.67665175 136.53026138 100.49016396 135.29892741 95.39453125 134.4921875 C88.71183866 133.11858348 86.34070562 130.42561937 82.6484375 124.87109375 C79.40280367 119.21815331 77 113.55599591 77 107 C81.95 107.33 86.9 107.66 92 108 C90.39125 107.46375 88.7825 106.9275 87.125 106.375 C80.31386078 103.8758223 73.33229427 101.18040128 68.9375 95.1875 C66.42133058 86.63252396 67.19963971 80.46436584 70 72 C63.9021923 81.80780073 58.68876888 90.6679402 60.3671875 102.61328125 C63.57180954 115.33286133 75.67688236 126.08951193 85.6875 134 C95.22136319 141.89815137 102.33911784 153.71373066 104 166 C104.13447265 168.69393548 104.09817605 171.30015875 104 174 C104.89386853 170.96477129 105.08505686 168.34804203 104.9921875 165.19140625 C104.97542969 164.27939453 104.95867187 163.36738281 104.94140625 162.42773438 C104.89722133 160.52128495 104.84516773 158.61500126 104.78515625 156.70898438 C104.65193175 148.12811556 104.65193175 148.12811556 108 144 C110.33203125 144.16015625 110.33203125 144.16015625 113 145 C120.30452499 156.45696813 121.49895083 171.28388592 118.9375 184.3125 C115.88064516 196.27102933 109.7992053 205.90521954 102.13671875 215.35546875 C99.93665409 217.99594249 99.93665409 217.99594249 98 221 C97.34 221 96.68 221 96 221 C95.7421875 221.58265625 95.484375 222.1653125 95.21875 222.765625 C93.90165983 225.1802903 92.44911616 226.81740177 90.5 228.75 C89.8915625 229.36359375 89.283125 229.9771875 88.65625 230.609375 C87 232 87 232 85 232 C85.15855469 231.01257813 85.31710937 230.02515625 85.48046875 229.0078125 C87.5477739 214.38612671 86.43107519 200.12716239 77.5078125 187.86328125 C75.49121256 185.37126526 73.3862555 183.14151135 71 181 C70.278125 180.34 69.55625 179.68 68.8125 179 C64.79847395 176.14558147 60.44261427 174.10485025 56 172 C56.639375 172.639375 57.27875 173.27875 57.9375 173.9375 C58.39253906 174.40027344 58.84757812 174.86304688 59.31640625 175.33984375 C60.54429895 176.55064282 61.80746856 177.72596706 63.08984375 178.87890625 C71.73529823 186.90366143 78.08703054 197.01960481 79 209 C79.4997356 225.42464335 72.57325264 238.89041139 65.38085938 253.24365234 C53.86165673 275.61356342 53.86165673 275.61356342 54 300.25 C55.83659292 305.67355374 59.14768014 309.05422772 64 312 C71.02167498 315.01802135 78.21694265 316.45760174 85.69140625 317.9296875 C94.56955879 319.81180631 103.11098315 322.68680245 108.81640625 330.10546875 C111.72231911 334.75684743 113.52017048 339.45151492 113 345 C112.34 345.33 111.68 345.66 111 346 C110.76925781 345.32453125 110.53851562 344.6490625 110.30078125 343.953125 C108.3714442 338.67604499 106.99500668 335.05250408 102 332 C102.66 333.11375 103.32 334.2275 104 335.375 C106.40346929 340.15636975 106.80577315 344.7249967 106 350 C105.34 350.99 104.68 351.98 104 353 C101.1796875 353.29296875 101.1796875 353.29296875 97.875 353.1875 C96.77929688 353.16042969 95.68359375 353.13335937 94.5546875 353.10546875 C93.29011719 353.05326172 93.29011719 353.05326172 92 353 C92.05220703 351.91332031 92.05220703 351.91332031 92.10546875 350.8046875 C92.33341893 342.96717668 92.33341893 342.96717668 89 336 C86.44860147 333.65674336 86.44860147 333.65674336 84 332 C84.66 333.11375 85.32 334.2275 86 335.375 C88.40346929 340.15636975 88.80577315 344.7249967 88 350 C87.34 350.99 86.68 351.98 86 353 C83.26953125 353.38818359 83.26953125 353.38818359 79.8125 353.3984375 C78.55566406 353.40230469 77.29882812 353.40617187 76.00390625 353.41015625 C75.34535645 353.40387207 74.68680664 353.39758789 74.00830078 353.39111328 C72.03553506 353.37528511 70.06259324 353.39241924 68.08984375 353.41015625 C59.33347264 353.38343284 50.88804789 353.25326456 43.9375 347.4375 C41.29492168 344.11296599 40.8779938 342.54043382 40.9375 338.375 C40.94652344 337.55773437 40.95554687 336.74046875 40.96484375 335.8984375 C40.98224609 334.95871094 40.98224609 334.95871094 41 334 C43.38564077 334.57584432 45.66682784 335.22227595 48 336 C47.505 335.38125 47.01 334.7625 46.5 334.125 C45 332 45 332 45 330 C44.39671875 329.72414063 43.7934375 329.44828125 43.171875 329.1640625 C41 328 41 328 38.25 325.375 C32.46250976 320.21352968 24.94822799 317.28643677 18 314 C18.04640625 312.75347656 18.0928125 311.50695312 18.140625 310.22265625 C18.68183156 289.48665488 14.58382726 268.51658925 0.15234375 252.6640625 C-0.22792969 252.11492187 -0.60820312 251.56578125 -1 251 C0 248 0 248 2.75 246.25 C6.36476383 244.85970622 7.45609898 244.55638948 11 246 C12.62251431 248.48362525 13.84634702 250.7028551 15.0625 253.375 C15.57683594 254.45297852 15.57683594 254.45297852 16.1015625 255.55273438 C18.76816141 261.23573319 21.07506442 267.02256845 23 273 C21.89045152 262.55494015 18.86756633 252.80134949 13 244 C13.37939647 240.39573351 14.63931281 237.33479893 16 234 C15.38253906 234.53109375 14.76507813 235.0621875 14.12890625 235.609375 C9.91272894 239.12606475 6.2999098 242.10048286 1.0625 243.875 C-1.07967519 244.64239007 -1.07967519 244.64239007 -3 246 C-3.96225463 248.09529553 -3.96225463 248.09529553 -4.4453125 250.5546875 C-5.88283355 255.96910688 -8.1859468 260.40093464 -10.9375 265.25 C-18.35609855 278.868638 -22.41778917 291.4296927 -18.14453125 306.7734375 C-15.96882371 311.0060426 -12.9817595 312.68087276 -8.5390625 314.125 C-7.23722121 314.42911866 -5.93229014 314.72022974 -4.625 315 C-3.20030925 315.33242784 -1.77583494 315.66578445 -0.3515625 316 C0.36999023 316.165 1.09154297 316.33 1.83496094 316.5 C25.74278221 322.02133716 25.74278221 322.02133716 31.80859375 330.99609375 C35.26611247 336.81152688 35.37922539 341.53190849 34 348 C33.0625 351.0625 33.0625 351.0625 31 353 C27.62800461 353.41334137 24.37897165 353.28527903 21 353 C21.03480469 352.04738281 21.06960938 351.09476562 21.10546875 350.11328125 C21.13253906 348.85902344 21.15960938 347.60476563 21.1875 346.3125 C21.22230469 345.07113281 21.25710938 343.82976562 21.29296875 342.55078125 C20.98107185 338.77059084 20.34485822 336.94610392 18 334 C17.01 333.67 16.02 333.34 15 333 C15.495 333.78375 15.99 334.5675 16.5 335.375 C18.38735443 339.93610655 18.82207071 344.11593284 18 349 C16.86328125 351.2890625 16.86328125 351.2890625 15 353 C12.08203125 353.390625 12.08203125 353.390625 8.8125 353.25 C7.72582031 353.21390625 6.63914062 353.1778125 5.51953125 353.140625 C4.68808594 353.09421875 3.85664063 353.0478125 3 353 C3.03480469 352.04738281 3.06960938 351.09476562 3.10546875 350.11328125 C3.13253906 348.85902344 3.15960938 347.60476563 3.1875 346.3125 C3.22230469 345.07113281 3.25710938 343.82976562 3.29296875 342.55078125 C2.98107185 338.77059084 2.34485822 336.94610392 0 334 C-0.99 333.67 -1.98 333.34 -3 333 C-2.505 333.763125 -2.01 334.52625 -1.5 335.3125 C0.49068371 340.20626411 0.63234057 344.76881893 0 350 C-0.66 350.99 -1.32 351.98 -2 353 C-4.7441815 353.33732464 -7.19307874 353.47432798 -9.9375 353.4375 C-10.70151123 353.43065186 -11.46552246 353.42380371 -12.25268555 353.41674805 C-19.90959988 353.20138977 -26.62383016 351.81347487 -32.625 346.8125 C-34.51578029 342.94499485 -34.81421303 339.26381088 -35 335 C-33.25 334.3125 -33.25 334.3125 -31 334 C-28.75 335.4375 -28.75 335.4375 -27 337 C-35.34431732 326.96074323 -42.89809601 321.13314087 -55 316 C-54.97381592 315.23034912 -54.94763184 314.46069824 -54.9206543 313.66772461 C-54.03871088 292.73859441 -54.03871088 292.73859441 -60 273 C-60.3594873 272.25991699 -60.71897461 271.51983398 -61.08935547 270.75732422 C-65.64761714 261.48155211 -70.69333688 252.53430211 -76.30859375 243.859375 C-78.20727706 240.64959166 -79.59608773 237.45182099 -81 234 C-80.77183594 234.83144531 -80.54367187 235.66289062 -80.30859375 236.51953125 C-80.02113281 237.60621094 -79.73367188 238.69289063 -79.4375 239.8125 C-79.14746094 240.89144531 -78.85742188 241.97039062 -78.55859375 243.08203125 C-78 246 -78 246 -79 249 C-82.87057515 250.93528758 -86.59711477 250.40291198 -90.625 249.24609375 C-96.3107019 247.23240766 -101.67016149 244.81576374 -107 242 C-97.18045489 250.44386005 -87.5605529 253.40126492 -75 256 C-78.93024939 260.36694376 -81.90150315 261.79233625 -87.75 262.37109375 C-109.40323151 263.00337933 -124.75612698 251.20451804 -140 237 C-143.3620536 233.74044804 -146.66950625 230.42852098 -149.9387207 227.07592773 C-153.13870191 223.80062194 -156.33625213 220.77031975 -160 218 C-159.66226563 218.68964844 -159.32453125 219.37929687 -158.9765625 220.08984375 C-152.31947918 234.11589502 -150.4812454 248.12707749 -155.74609375 263.1328125 C-157.60373856 267.38051122 -159.81224745 270.64822439 -163 274 C-163.64839844 274.68835938 -164.29679688 275.37671875 -164.96484375 276.0859375 C-172.11475653 283.04191051 -181.64634048 287.89410567 -191.75 288.0625 C-192.8225 288.041875 -193.895 288.02125 -195 288 C-193.32958097 284.75742188 -191.45311994 282.39725557 -188.8125 279.9375 C-183.47941217 274.77498002 -177.25445153 267.50878845 -176 260 C-176.41507813 260.63164062 -176.83015625 261.26328125 -177.2578125 261.9140625 C-186.32234829 275.07470651 -197.54580152 285.16884005 -210.6027832 294.29418945 C-215.348953 297.63159514 -219.34247127 300.68494254 -222 306 C-222.5705842 313.13230248 -220.91785324 318.31500547 -216.8125 324.0625 C-214.68839753 326.43119609 -212.34510547 328.48605216 -209.9375 330.5625 C-202.02668828 337.41356147 -202.02668828 337.41356147 -201.0625 343.5 C-200.86656316 346.50938888 -201.04438035 348.13591483 -202 351.0625 C-204 353 -204 353 -207.6875 353.3125 C-208.780625 353.209375 -209.87375 353.10625 -211 353 C-210.938125 351.824375 -210.87625 350.64875 -210.8125 349.4375 C-210.80448441 344.93273639 -211.89524018 341.96666275 -214 338 C-214.66 337.67 -215.32 337.34 -216 337 C-215.67515625 337.55429687 -215.3503125 338.10859375 -215.015625 338.6796875 C-213.85221891 341.33762294 -213.73274805 343.23529847 -213.75 346.125 C-213.74226563 347.42824219 -213.74226563 347.42824219 -213.734375 348.7578125 C-214 351 -214 351 -216 353 C-218.1640625 353.1953125 -218.1640625 353.1953125 -220.625 353.125 C-221.44226563 353.10695313 -222.25953125 353.08890625 -223.1015625 353.0703125 C-223.72804688 353.04710937 -224.35453125 353.02390625 -225 353 C-224.96519531 352.41992188 -224.93039062 351.83984375 -224.89453125 351.2421875 C-224.71379046 346.02652464 -225.0645422 342.51608892 -228 338 C-228.66 337.67 -229.32 337.34 -230 337 C-229.76023437 337.58007812 -229.52046875 338.16015625 -229.2734375 338.7578125 C-226.82850337 345.19968241 -226.82850337 345.19968241 -227.75 349.5 C-229 352 -229 352 -230 353 C-235.80189388 353.50631692 -241.17794477 353.79914703 -246.5625 351.4375 C-250.49353354 347.50646646 -252.67804591 344.1731901 -253.5 338.625 C-252.64957481 332.4594174 -250.10907805 326.72543976 -246 322 C-245.01 325.465 -245.01 325.465 -244 329 C-242.95218165 325.85654496 -242.83343734 323.54972408 -242.8125 320.25 C-242.79832031 319.24453125 -242.78414063 318.2390625 -242.76953125 317.203125 C-242.88736068 313.93904095 -242.88736068 313.93904095 -243.9921875 310.6953125 C-245.20829881 306.2362377 -245.33085325 302.22065376 -245.3125 297.625 C-245.32861328 296.82578125 -245.34472656 296.0265625 -245.36132812 295.203125 C-245.3660907 289.31657813 -244.16163922 284.46175813 -242 279 C-245.95346348 284.99835839 -247.48616831 291.01573108 -249 298 C-251 297 -251 297 -251.8515625 294.62890625 C-255.95474044 278.36125634 -255.95474044 278.36125634 -252.5625 271.25 C-247.70936655 264.03770446 -238.27512556 260.44642981 -230.8203125 256.61328125 C-227.42794065 254.67276938 -225.46727869 253.43646037 -224.2355957 249.65014648 C-224.05085693 248.73305908 -223.86611816 247.81597168 -223.67578125 246.87109375 C-223.45575439 245.84387207 -223.23572754 244.81665039 -223.0090332 243.75830078 C-222.77917725 242.66243652 -222.54932129 241.56657227 -222.3125 240.4375 C-220.46114219 232.16400225 -218.31826734 224.35776273 -214.8125 216.625 C-214.47968018 215.88950928 -214.14686035 215.15401855 -213.80395508 214.39624023 C-212.22329517 211.07093838 -210.68532575 208.50125672 -208 206 C-207.96132813 207.43279297 -207.96132813 207.43279297 -207.921875 208.89453125 C-207.55318145 217.29906837 -206.47928467 224.21611197 -203 232 C-203 229.8435003 -203.45036055 228.20904958 -204 226.125 C-206.72265754 213.88283479 -204.81343654 202.04064418 -199 191 C-200.12792969 191.50789062 -201.25585938 192.01578125 -202.41796875 192.5390625 C-238.63251344 208.51881802 -280.61654622 214.94146105 -318.6640625 201.3125 C-327.12149355 197.98498614 -334.12060332 193.96053174 -341 188 C-341.76441406 187.35417969 -342.52882813 186.70835937 -343.31640625 186.04296875 C-354.82475586 175.54719812 -359.94446585 160.29440059 -361 145 C-360.04338604 126.46794919 -353.95580302 111.14255029 -342 97 C-341.39285156 96.18917969 -340.78570312 95.37835938 -340.16015625 94.54296875 C-337.54735792 91.46714287 -334.68153254 89.08896573 -331.5 86.625 C-330.8797998 86.14385742 -330.25959961 85.66271484 -329.62060547 85.16699219 C-312.21036483 71.8922958 -292.79148349 65.46997764 -271.75537109 60.46606445 C-267.87296351 59.53587576 -264.29403698 58.37607422 -260.625 56.8125 C-250.2295174 53.0581807 -242.32071879 56.70341344 -232.80078125 61.15234375 C-221.33959821 66.66040179 -221.33959821 66.66040179 -218 70 C-218.3269756 72.61580479 -218.82039068 74.64078137 -220 77 C-220.52364299 80.30467129 -220.96135952 83.61694764 -221.40234375 86.93359375 C-222 90 -222 90 -224 93 C-219.78790273 94.40403242 -217.94617161 92.83701092 -214 91 C-212.3357865 90.32723284 -210.67013418 89.65793165 -209 89 C-209.33 89.66 -209.66 90.32 -210 91 C-209.34 91.66 -208.68 92.32 -208 93 C-211.84157596 96.43289766 -214.77843019 98.78671003 -219.9375 99.6875 C-225.75333376 99.21718603 -231.06310074 95.99559317 -235.0625 91.875 C-237.9694997 89.06177448 -241.18178443 88.27273852 -245 87 C-241.74435579 93.30781066 -238.30781066 96.74435579 -232 100 C-232.32157204 102.97454134 -232.62139742 104.59335278 -234.6875 106.8125 C-237.87615521 108.44991754 -239.43580332 108.61688019 -243 108 C-244.99846216 106.6032726 -246.83824071 105.06313891 -248.71875 103.51171875 C-251.3577535 101.76292705 -253.60697227 101.18318155 -256.6875 100.5 C-260.21174376 99.65437702 -262.63295349 99.00679956 -265.125 96.3125 C-267.39962063 92.29400355 -267.54020299 89.55574389 -268 85 C-291.75040431 88.65845553 -314.7446608 94.4326449 -329.8125 114.875 C-337.24498066 126.06683283 -339.17414329 137.78924812 -338 151 C-335.8776546 161.27931144 -329.85922622 170.77931174 -321.15234375 176.6953125 C-309.58415991 183.70760542 -298.21150741 186.5830012 -284.6875 186.5 C-283.56448486 186.49355469 -282.44146973 186.48710937 -281.28442383 186.48046875 C-248.55223535 185.78075809 -219.46175116 169.92172108 -190.94189453 155.42407227 C-179.68796571 149.70655575 -169.08743891 144.84742565 -156.3125 144.75 C-155.32733398 144.7190625 -155.32733398 144.7190625 -154.32226562 144.6875 C-143.53016219 144.60408278 -134.25289157 149.58251634 -124.76602173 154.18182373 C-114.58978552 159.10551499 -104.3988103 163.88677629 -93.8125 167.875 C-92.9774292 168.18977295 -92.1423584 168.5045459 -91.28198242 168.82885742 C-81.06782855 172.5667894 -67.2729106 174.70611593 -56.875 170.4375 C-48.9586273 166.02916697 -42.57028675 159.52611651 -38.75 151.3125 C-37.60623996 146.26089315 -37.31737648 141.16154386 -37 136 C-35.7315625 135.67128906 -35.7315625 135.67128906 -34.4375 135.3359375 C-25.13227762 132.73470488 -17.35040709 129.43718041 -12 121 C-9.63044455 115.24536534 -9.45943267 109.97526405 -11 104 C-12.7014242 100.4453322 -14.76690144 97.24105577 -17 94 C-17.79184086 92.79178081 -18.58353867 91.58346784 -19.375 90.375 C-20.179375 89.199375 -20.179375 89.199375 -21 88 C-19.72643096 92.63116013 -17.75153063 96.21060525 -15.12109375 100.16796875 C-12.29554748 104.78532485 -12.34717557 109.76963283 -13 115 C-15.10407227 121.10825063 -19.43485645 124.73615865 -24.9609375 127.81640625 C-29.82814567 129.7119899 -34.71674958 130.19219527 -39.875 130.67578125 C-42.90234029 130.80428491 -42.90234029 130.80428491 -45 132 C-44.96519531 133.2684375 -44.96519531 133.2684375 -44.9296875 134.5625 C-44.68274276 150.08474089 -44.68274276 150.08474089 -48.9375 155.4375 C-52.80841222 158.37000926 -56.29505498 158.16803375 -61 158 C-61.99 157.67 -62.98 157.34 -64 157 C-64 155.35 -64 153.7 -64 152 C-65.30840388 151.95176842 -65.30840388 151.95176842 -67.6875 152.8125 C-71.34786532 153.01969049 -71.73289285 152.79668087 -74.375 150.5625 C-75.24125 149.716875 -76.1075 148.87125 -77 148 C-75.91483806 144.15260767 -74.44604896 141.01025567 -72.375 137.625 C-69.78049408 133.14358068 -69.535255 130.11219497 -70 125 C-70.58007812 125.433125 -71.16015625 125.86625 -71.7578125 126.3125 C-79.51669596 131.84358524 -79.51669596 131.84358524 -85 131 C-86.13114794 127.60655617 -85.59673364 125.96875247 -84.66357422 122.60693359 C-80.58450643 107.88451429 -80.03989868 95.04020884 -86.78515625 81.13671875 C-88.09331683 77.75905655 -88.14102165 76.37527348 -87 73 C-86.67 72.34 -86.34 71.68 -86 71 C-86.66 71 -87.32 71 -88 71 C-89.32002556 68.44113496 -90.63113782 65.87832932 -91.9375 63.3125 C-92.31068359 62.59126953 -92.68386719 61.87003906 -93.06835938 61.12695312 C-97.02798193 53.31472483 -98.83849129 44.91925468 -96.1640625 36.30859375 C-92.87559974 29.08059675 -88.07720904 23.99700035 -80.9375 20.5 C-75.80428446 19.62626119 -72.24706351 20.3176445 -67.6875 22.8125 C-63.83152174 25.95108696 -63.83152174 25.95108696 -63 29 C-63.375 31.75 -63.375 31.75 -64 34 C-65.65 33.67 -67.3 33.34 -69 33 C-72.44842155 39.8968431 -68.92036073 50.07384542 -67 57 C-65.84154236 59.84839405 -64.54657823 62.33348581 -63 65 C-60.53563711 63.83294442 -58.69407152 62.74898176 -56.5625 61 C-54.08071863 59.06299991 -51.95836218 58.01429561 -49 57 C-55.30025984 58.06087202 -55.30025984 58.06087202 -60 62 C-60.99 61.67 -61.98 61.34 -63 61 C-66.28431436 48.73132158 -64.9765389 38.6937707 -58.71875 27.76171875 C-49.33765568 12.67379206 -36.04172123 4.26773886 -19 0.125 C-12.41765959 -1.15953611 -6.59715321 -1.05062268 0 0 Z M91 67 C91 67.66 91 68.32 91 69 C91.53625 69.09796875 92.0725 69.1959375 92.625 69.296875 C100.83428317 70.86311982 108.90629648 72.93138595 117 75 C113.65158291 69.29027143 110.2576536 63.74726256 104 61 C98.13234381 59.85198031 94.72542209 62.74552388 91 67 Z M-252 64 C-251.67 64.66 -251.34 65.32 -251 66 C-249.02 66 -247.04 66 -245 66 C-245.33 65.34 -245.66 64.68 -246 64 C-247.98 64 -249.96 64 -252 64 Z M71 69 C72 71 72 71 72 71 Z M-251 79 C-251.32481924 85.08735318 -251.47425406 89.72428087 -248 95 C-246.43897509 96.81554159 -246.43897509 96.81554159 -245 98 C-244.34 97.67 -243.68 97.34 -243 97 C-244.65 94.03 -246.3 91.06 -248 88 C-248.66 88 -249.32 88 -250 88 C-249.38245741 86.68397477 -248.75571258 85.37226444 -248.125 84.0625 C-247.77695313 83.33160156 -247.42890625 82.60070312 -247.0703125 81.84765625 C-246 80 -246 80 -244 79 C-244.33 80.32 -244.66 81.64 -245 83 C-244.38511719 83.13277344 -243.77023438 83.26554687 -243.13671875 83.40234375 C-241.92435547 83.66724609 -241.92435547 83.66724609 -240.6875 83.9375 C-239.48673828 84.19853516 -239.48673828 84.19853516 -238.26171875 84.46484375 C-236 85 -236 85 -233 86 C-233.18464366 81.65815798 -233.18464366 81.65815798 -235 78 C-240.86012745 76.7550373 -245.39060484 76.97106984 -251 79 Z M-228 78 C-228.33 82.29 -228.66 86.58 -229 91 C-227.02 91.99 -227.02 91.99 -225 93 C-224.97296619 91.06257659 -224.95358875 89.12504521 -224.9375 87.1875 C-224.92589844 86.10855469 -224.91429687 85.02960938 -224.90234375 83.91796875 C-224.86375234 80.93487831 -224.86375234 80.93487831 -226 78 C-226.66 78 -227.32 78 -228 78 Z M-24 82 C-23 84 -23 84 -23 84 Z M-23 85 C-22 87 -22 87 -22 87 Z M-8 90 C-7.13375 90.99 -6.2675 91.98 -5.375 93 C-4.24706821 94.3308541 -3.12213154 95.66425168 -2 97 C-1.52046875 97.55558594 -1.0409375 98.11117187 -0.546875 98.68359375 C12.73015285 115.06102646 16.20657209 134.61155644 18 155 C22.55531585 148.16702622 21.35976869 137.38769129 20.0625 129.5625 C16.43575888 114.06789621 7.62697451 98.83341489 -6 90 C-6.66 90 -7.32 90 -8 90 Z M141 101 C142 104 142 104 142 104 Z M140 105 C141 108 141 108 141 108 Z M-61 145 C-60 147 -60 147 -60 147 Z M44 185 C44.4021875 185.79857422 44.4021875 185.79857422 44.8125 186.61328125 C51.9646969 200.98825594 54.30936572 212.16993535 55 228 C59.38688333 221.41967501 58.30667363 212.54253588 56.85546875 205.0625 C54.57395507 196.89488937 51.15324939 189.76883293 44 185 Z M-65 244 C-63.66871265 247.57740805 -62.0255179 250.89706142 -60.2331543 254.26416016 C-53.26412024 267.49930445 -49.84928692 281.38292645 -47 296 C-46.67 296 -46.34 296 -46 296 C-45.27725403 278.93516471 -48.18703767 262.18189803 -59.2890625 248.734375 C-61.06849752 246.93056415 -62.93376181 245.46170562 -65 244 Z M49 338 C50 340 50 340 50 340 Z " fill="#AE884E" transform="translate(490,21)"/>
<path d="M0 0 C1.11568359 0.13728516 1.11568359 0.13728516 2.25390625 0.27734375 C17.43327693 2.7653069 30.75198711 13.29847821 39.9609375 25.078125 C48.94603476 37.95332184 53.52200176 53.31666335 51.375 69 C49.04107706 80.96722901 43.51171482 93.10730047 34 101 C31.81640625 100.65234375 31.81640625 100.65234375 30 100 C29.83825166 95.63279487 29.9535093 91.86992003 31 87.625 C33.76193515 74.63589917 33.23970937 60.16949139 26.5625 48.484375 C21.6690055 41.56760874 14.20990823 34.89464449 5.9375 32.5 C-3.77102971 31.26717083 -12.12936706 31.80943862 -20.875 36.5625 C-26.94902802 43.52976743 -27.55796231 51.7533165 -27.25 60.625 C-27.23195313 61.62917969 -27.21390625 62.63335937 -27.1953125 63.66796875 C-27.14873997 66.11302652 -27.08337028 68.55596812 -27 71 C-27.60690674 70.7119751 -28.21381348 70.4239502 -28.83911133 70.12719727 C-29.6411499 69.75651123 -30.44318848 69.3858252 -31.26953125 69.00390625 C-32.06206299 68.63338135 -32.85459473 68.26285645 -33.67114258 67.88110352 C-37.19442462 66.54809954 -39.44630058 66.86013415 -43 68 C-51.55173137 73.53347324 -53.37709653 81.58331563 -55.484375 91.14453125 C-56.08885032 94.00843401 -56.08885032 94.00843401 -56 97 C-55.80664062 96.22914062 -55.61328125 95.45828125 -55.4140625 94.6640625 C-55.15367187 93.66117187 -54.89328125 92.65828125 -54.625 91.625 C-54.36976563 90.62726563 -54.11453125 89.62953125 -53.8515625 88.6015625 C-53 86 -53 86 -51 84 C-47.64530354 83.53550357 -44.31737169 83.21245481 -40.94140625 82.96484375 C-37.47112717 82.62612406 -35.35120607 82.28256644 -32.6015625 80.0703125 C-32.07304687 79.38710937 -31.54453125 78.70390625 -31 78 C-30.4225 77.2575 -29.845 76.515 -29.25 75.75 C-28.8375 75.1725 -28.425 74.595 -28 74 C-26.39660152 77.11771927 -25.81025859 78.39011689 -26.875 81.8125 C-27.431875 82.8953125 -27.431875 82.8953125 -28 84 C-26.68 83.34 -25.36 82.68 -24 82 C-23.54560547 83.16015625 -23.54560547 83.16015625 -23.08203125 84.34375 C-20.79760893 90.02317535 -18.46158102 95.30811654 -15.015625 100.37890625 C-12.21515288 104.8488906 -12.3669981 109.92844906 -13 115 C-15.10407227 121.10825063 -19.43485645 124.73615865 -24.9609375 127.81640625 C-29.82814567 129.7119899 -34.71674958 130.19219527 -39.875 130.67578125 C-42.90234029 130.80428491 -42.90234029 130.80428491 -45 132 C-44.97679687 132.845625 -44.95359375 133.69125 -44.9296875 134.5625 C-44.68274276 150.08474089 -44.68274276 150.08474089 -48.9375 155.4375 C-52.80841222 158.37000926 -56.29505498 158.16803375 -61 158 C-61.99 157.67 -62.98 157.34 -64 157 C-64 155.35 -64 153.7 -64 152 C-65.30840388 151.95176842 -65.30840388 151.95176842 -67.6875 152.8125 C-71.34786532 153.01969049 -71.73289285 152.79668087 -74.375 150.5625 C-75.24125 149.716875 -76.1075 148.87125 -77 148 C-75.91483806 144.15260767 -74.44604896 141.01025567 -72.375 137.625 C-69.78049408 133.14358068 -69.535255 130.11219497 -70 125 C-70.58007812 125.433125 -71.16015625 125.86625 -71.7578125 126.3125 C-79.51669596 131.84358524 -79.51669596 131.84358524 -85 131 C-86.13114794 127.60655617 -85.59673364 125.96875247 -84.66357422 122.60693359 C-80.58450643 107.88451429 -80.03989868 95.04020884 -86.78515625 81.13671875 C-88.09331683 77.75905655 -88.14102165 76.37527348 -87 73 C-86.505 72.01 -86.505 72.01 -86 71 C-86.66 71 -87.32 71 -88 71 C-89.32002556 68.44113496 -90.63113782 65.87832932 -91.9375 63.3125 C-92.31068359 62.59126953 -92.68386719 61.87003906 -93.06835938 61.12695312 C-97.02798193 53.31472483 -98.83849129 44.91925468 -96.1640625 36.30859375 C-92.87559974 29.08059675 -88.07720904 23.99700035 -80.9375 20.5 C-75.80428446 19.62626119 -72.24706351 20.3176445 -67.6875 22.8125 C-63.83152174 25.95108696 -63.83152174 25.95108696 -63 29 C-63.375 31.75 -63.375 31.75 -64 34 C-65.65 33.67 -67.3 33.34 -69 33 C-72.44842155 39.8968431 -68.92036073 50.07384542 -67 57 C-65.84154236 59.84839405 -64.54657823 62.33348581 -63 65 C-60.53563711 63.83294442 -58.69407152 62.74898176 -56.5625 61 C-54.08071863 59.06299991 -51.95836218 58.01429561 -49 57 C-55.30025984 58.06087202 -55.30025984 58.06087202 -60 62 C-60.99 61.67 -61.98 61.34 -63 61 C-66.28431436 48.73132158 -64.9765389 38.6937707 -58.71875 27.76171875 C-49.33765568 12.67379206 -36.04172123 4.26773886 -19 0.125 C-12.41765959 -1.15953611 -6.59715321 -1.05062268 0 0 Z M-61 145 C-60 147 -60 147 -60 147 Z " fill="#003056" transform="translate(490,21)"/>
<path d="M0 0 C2.43676758 0.04003906 2.43676758 0.04003906 5 1 C6.6315918 3.32714844 6.6315918 3.32714844 8.01171875 6.359375 C8.7704126 8.0000293 8.7704126 8.0000293 9.54443359 9.67382812 C10.02477051 10.77146484 10.50510742 11.86910156 11 13 C11.40686035 13.91716797 11.8137207 14.83433594 12.23291016 15.77929688 C13.45468566 18.59158886 14.63717343 21.41799393 15.8125 24.25 C16.76268834 26.51316046 17.71323471 28.77617062 18.6640625 31.0390625 C19.19186734 32.2984458 19.7195309 33.55788831 20.24707031 34.81738281 C23.34587 42.21320851 26.45389529 49.6050771 29.57601929 56.99108887 C30.30564907 58.72011574 31.03327505 60.44998984 31.75869751 62.18078613 C35.41189585 70.89636301 39.14719851 79.54765014 43.33203125 88.0234375 C43.65636642 88.68687164 43.9807016 89.35030579 44.31486511 90.03384399 C46.55751397 94.48474654 46.55751397 94.48474654 50 98 C52.49443774 98.78798055 52.49443774 98.78798055 55.1875 99.1875 C56.53908203 99.42533203 56.53908203 99.42533203 57.91796875 99.66796875 C58.60503906 99.77753906 59.29210937 99.88710938 60 100 C60 100.99 60 101.98 60 103 C47.79 103 35.58 103 23 103 C23 102.01 23 101.02 23 100 C23.66 99.67 24.32 99.34 25 99 C23.09734811 91.62495887 20.31991222 84.70507662 17.33764648 77.71508789 C15 72.19674009 15 72.19674009 15 70 C3.78 70 -7.44 70 -19 70 C-19.33 71.65 -19.66 73.3 -20 75 C-20.50528962 76.43053903 -21.04884317 77.84811329 -21.62890625 79.25 C-21.94150391 80.0234375 -22.25410156 80.796875 -22.57617188 81.59375 C-23.2342873 83.199291 -23.89575423 84.80346225 -24.56054688 86.40625 C-26.82418254 92.00390218 -26.82418254 92.00390218 -27 98 C-24.36 98.66 -21.72 99.32 -19 100 C-19 100.99 -19 101.98 -19 103 C-24.79826198 103.12445087 -30.59573097 103.21473829 -36.39501953 103.2746582 C-38.36390747 103.29966047 -40.33270393 103.333674 -42.30126953 103.37719727 C-63.99050792 103.84440083 -63.99050792 103.84440083 -73.890625 95.58984375 C-82.91278327 85.44738438 -90.47884223 74.28173666 -98 63 C-100.609621 62.61588725 -103.0058074 62.39706803 -105.625 62.3125 C-106.33140625 62.27833984 -107.0378125 62.24417969 -107.765625 62.20898438 C-109.50985688 62.12648692 -111.25490395 62.06156665 -113 62 C-112.76303867 66.48474078 -112.51451628 70.96864763 -112.25537109 75.45214844 C-112.16887334 76.97671178 -112.08550905 78.50145632 -112.00537109 80.02636719 C-111.88947399 82.22125801 -111.76223498 84.41524524 -111.6328125 86.609375 C-111.59938751 87.2886908 -111.56596252 87.96800659 -111.53152466 88.66790771 C-111.31252829 92.18346014 -111.06465404 95.07716802 -109 98 C-106.36428432 98.91956802 -106.36428432 98.91956802 -103.375 99.25 C-102.37210938 99.39953125 -101.36921875 99.5490625 -100.3359375 99.703125 C-99.56507813 99.80109375 -98.79421875 99.8990625 -98 100 C-98 100.99 -98 101.98 -98 103 C-112.52 103 -127.04 103 -142 103 C-142 102.01 -142 101.02 -142 100 C-141.36191406 99.82984375 -140.72382812 99.6596875 -140.06640625 99.484375 C-139.24011719 99.24203125 -138.41382813 98.9996875 -137.5625 98.75 C-136.73878906 98.51796875 -135.91507813 98.2859375 -135.06640625 98.046875 C-132.89190618 97.23239289 -132.89190618 97.23239289 -132.38191223 95.43617249 C-131.83588168 91.95310885 -131.83548892 88.49096781 -131.82299805 84.97436523 C-131.81642685 84.16905365 -131.80985565 83.36374207 -131.80308533 82.5340271 C-131.78341105 79.87554833 -131.77170688 77.21712571 -131.76171875 74.55859375 C-131.75764322 73.65030382 -131.7535677 72.74201389 -131.74936867 71.80620003 C-131.72853952 67.00467279 -131.7142205 62.20317392 -131.70483398 57.40161133 C-131.69373681 52.43577834 -131.65929022 47.47038942 -131.61966228 42.50471401 C-131.59357479 38.68979536 -131.58514951 34.87498422 -131.58155251 31.05998421 C-131.57667124 29.22868897 -131.5650137 27.39739902 -131.54651451 25.56619072 C-131.52227516 23.00917586 -131.52305899 20.45333377 -131.5300293 17.89624023 C-131.51721924 17.13719894 -131.50440918 16.37815765 -131.49121094 15.59611511 C-131.52516129 11.37784561 -131.52516129 11.37784561 -133.89558411 8.03846741 C-137.2624011 6.37704215 -140.2742153 6.31048206 -144 6 C-144 5.01 -144 4.02 -144 3 C-136.2445815 2.8979337 -128.48933853 2.82825624 -120.73339844 2.78027344 C-118.09921801 2.76025392 -115.46508148 2.73302998 -112.83105469 2.69824219 C-109.02788406 2.64929904 -105.22530494 2.62693343 -101.421875 2.609375 C-100.25887878 2.58872986 -99.09588257 2.56808472 -97.89764404 2.54681396 C-89.0316146 2.54442287 -79.77626043 3.78946672 -72.5 9.3125 C-67.16073586 15.05220895 -64.56955511 20.83497826 -64.73046875 28.734375 C-65.9033173 38.59310196 -72.29599871 47.09000744 -79.75390625 53.2890625 C-80.49511719 53.85367188 -81.23632812 54.41828125 -82 55 C-81.50233623 59.30271801 -78.75394227 61.95193211 -76 65.0625 C-74.98730564 66.22831991 -73.97560021 67.39499954 -72.96484375 68.5625 C-72.46065918 69.14257812 -71.95647461 69.72265625 -71.43701172 70.3203125 C-69.41487581 72.68393722 -67.4938141 75.12443743 -65.5625 77.5625 C-62.13748286 81.74520978 -58.56499655 85.73680817 -54.8125 89.625 C-54.32531494 90.14650635 -53.83812988 90.6680127 -53.33618164 91.20532227 C-50.05275321 94.52767364 -47.65968517 95.71006403 -43 96 C-38.53936843 87.46129752 -34.73657472 78.65733449 -30.9375 69.8125 C-30.25196714 68.22347516 -29.5662528 66.6345286 -28.88037109 65.0456543 C-24.74059813 55.44217944 -20.64765995 45.81927838 -16.57421875 36.1875 C-15.65959791 34.0275831 -14.7449658 31.86767096 -13.83032227 29.70776367 C-12.03974601 25.47861875 -10.25619705 21.24659604 -8.47631836 17.01293945 C-7.65368977 15.06713265 -6.83086423 13.1214091 -6.0078125 11.17578125 C-5.63142136 10.27541138 -5.25503021 9.3750415 -4.86723328 8.4473877 C-4.51804337 7.62468384 -4.16885345 6.80197998 -3.80908203 5.9543457 C-3.50648468 5.23543655 -3.20388733 4.5165274 -2.89212036 3.77583313 C-2 2 -2 2 0 0 Z M-113 12 C-113.20006302 14.98962103 -113.27972923 17.8846235 -113.265625 20.875 C-113.26753845 21.75526855 -113.2694519 22.63553711 -113.27142334 23.54248047 C-113.27278552 25.40527634 -113.26908682 27.26808169 -113.26074219 29.13085938 C-113.25004307 31.98849736 -113.26063632 34.84550666 -113.2734375 37.703125 C-113.27211591 39.51041806 -113.26955353 41.31771073 -113.265625 43.125 C-113.26967346 43.98335449 -113.27372192 44.84170898 -113.27789307 45.72607422 C-113.45493375 50.34225058 -113.45493375 50.34225058 -111 54 C-104.61986869 55.20051029 -97.95942547 55.86052423 -92 53 C-86.19484321 47.76054294 -83.72200894 42.17380913 -83.04296875 34.4609375 C-82.91740301 27.26944494 -84.52013808 21.25525794 -89.1796875 15.6953125 C-94.8937202 10.37365973 -101.14160844 9.55754724 -108.71484375 9.6640625 C-111.19418897 9.7963608 -111.19418897 9.7963608 -113 12 Z M-2 29 C-5.37953988 35.4645327 -8.11478703 42.07666556 -10.75 48.875 C-11.16121094 49.91914063 -11.57242188 50.96328125 -11.99609375 52.0390625 C-14.13291632 56.88277899 -14.13291632 56.88277899 -15 62 C-6.42 62 2.16 62 11 62 C8.58983836 53.87893666 8.58983836 53.87893666 5.73828125 45.9921875 C5.34189453 44.98671875 4.94550781 43.98125 4.53710938 42.9453125 C4.13298828 41.93210937 3.72886719 40.91890625 3.3125 39.875 C2.68891602 38.2971875 2.68891602 38.2971875 2.05273438 36.6875 C1.03880049 34.12352925 0.02117166 31.56109468 -1 29 C-1.33 29 -1.66 29 -2 29 Z " fill="#002F56" transform="translate(738,391)"/>
<path d="M0 0 C2.22290039 0.01220703 2.22290039 0.01220703 5 1 C6.73934105 3.6034636 8.08293063 6.00480269 9.43359375 8.8046875 C9.85386337 9.638862 10.274133 10.4730365 10.70713806 11.33248901 C11.64268618 13.19534856 12.56980923 15.06245534 13.4899292 16.9329834 C15.08263217 20.16782937 16.69934478 23.38982779 18.32080078 26.61035156 C21.92126548 33.77203953 25.49387809 40.94741937 29.0625 48.125 C30.90953311 51.83955131 32.75712514 55.553819 34.60777283 59.26657104 C35.7492639 61.55708137 36.8889441 63.84849524 38.02662659 66.14089966 C38.53483444 67.16061859 39.0430423 68.18033752 39.56665039 69.23095703 C40.23755455 70.58062057 40.23755455 70.58062057 40.92201233 71.95755005 C41.83784445 73.93627646 41.83784445 73.93627646 43 75 C43.24419678 74.48131348 43.48839355 73.96262695 43.73999023 73.42822266 C51.87318094 56.19559515 60.3739237 39.15593311 68.92724609 22.12939453 C72.29449931 15.42443775 75.64645789 8.71182161 79 2 C79.33 1.34 79.66 0.68 80 0 C81.65 0 83.3 0 85 0 C86.98186994 4.30061774 87.70742253 8.61224877 88.37280273 13.25927734 C88.49507233 14.07781693 88.61734192 14.89635651 88.74331665 15.73970032 C89.00729438 17.51152362 89.26852701 19.28375762 89.52731133 21.05634689 C89.93793579 23.86564364 90.35675236 26.67360858 90.77784729 29.48135376 C91.9733198 37.46273925 93.15369575 45.44633701 94.3293457 53.43066406 C95.04985709 58.32001903 95.77964376 63.20792002 96.51487923 68.09508133 C96.79241039 69.95319385 97.06629267 71.8118553 97.33639336 73.67106247 C97.71489386 76.27605348 98.10510543 78.87905039 98.49780273 81.48193359 C98.60543442 82.24372421 98.7130661 83.00551483 98.82395935 83.79039001 C99.56715655 88.6116653 100.73855968 92.65594395 103 97 C105.8949634 98.47477023 105.8949634 98.47477023 109.1875 98.9375 C110.81751953 99.26041016 110.81751953 99.26041016 112.48046875 99.58984375 C113.31191406 99.72519531 114.14335937 99.86054688 115 100 C115 100.99 115 101.98 115 103 C111.0625162 103.02946879 107.12506144 103.04695407 103.1875 103.0625 C102.08728516 103.07087891 100.98707031 103.07925781 99.85351562 103.08789062 C92.83958647 103.10858068 85.97214662 102.7491211 79 102 C79.08628159 101.40039459 79.17256317 100.80078918 79.26145935 100.18301392 C80.06954531 93.69629003 79.75364509 87.90511189 78.78515625 81.4609375 C78.65056503 80.49523834 78.51597382 79.52953918 78.37730408 78.53457642 C77.95005416 75.47970323 77.50735321 72.42735508 77.0625 69.375 C76.62342856 66.31525863 76.1878374 63.25511006 75.75840759 60.19400024 C75.49185642 58.29874305 75.21954193 56.4042841 74.94044495 54.51083374 C74.19704303 49.27937451 73.86745077 44.28429582 74 39 C73.34 39 72.68 39 72 39 C71.72704102 39.87058044 71.45408203 40.74116089 71.17285156 41.63812256 C70.05526303 44.84159331 68.74847972 47.75688198 67.234375 50.79003906 C66.68040039 51.9042926 66.12642578 53.01854614 65.55566406 54.16656494 C64.95398015 55.36635401 64.35208718 56.56603825 63.75 57.765625 C63.12964909 59.00767545 62.50953565 60.24984453 61.88964844 61.49212646 C60.59439226 64.0855772 59.29627351 66.67756897 57.99609375 69.26855469 C56.32948767 72.59033495 54.67013155 75.91567586 53.01287842 79.24213028 C51.73583056 81.80344676 50.45498434 84.36284875 49.17297363 86.92168427 C48.55939275 88.14751211 47.94699932 89.37393507 47.33581543 90.60095978 C46.48295469 92.31175398 45.6244225 94.01971733 44.765625 95.72753906 C44.27868164 96.69983459 43.79173828 97.67213013 43.29003906 98.67388916 C42 101 42 101 40 103 C37.40501802 102.80960818 36.31241642 102.34191745 34.54956055 100.41259766 C30.22466742 93.61131029 26.47533872 86.55025937 22.8125 79.375 C22.15689706 78.09997648 21.50121573 76.82499326 20.84545898 75.55004883 C14.99876878 64.14416638 9.42713305 52.61142071 4 41 C-0.00347982 69.44056167 -0.00347982 69.44056167 -3 98 C0.63 98.66 4.26 99.32 8 100 C7.505 101.485 7.505 101.485 7 103 C-3.89 103 -14.78 103 -26 103 C-26.33 102.01 -26.66 101.02 -27 100 C-25.01432292 99.64192708 -23.02864583 99.28385417 -21.04296875 98.92578125 C-18.04914898 97.56911722 -17.45219518 95.9442386 -16 93 C-15.2545066 90.13866085 -14.82940773 87.25021092 -14.40600586 84.32592773 C-14.27223038 83.46355499 -14.1384549 82.60118225 -14.00062561 81.712677 C-13.56213832 78.87106781 -13.13871351 76.02741662 -12.71484375 73.18359375 C-12.41117759 71.20474543 -12.10635637 69.22607405 -11.8004303 67.24757385 C-10.99809641 62.04401207 -10.20758939 56.83873213 -9.42071533 51.6328125 C-8.16003149 43.29640726 -6.88748503 34.96185979 -5.60348701 26.62901497 C-5.15766815 23.71835565 -4.72059159 20.80647418 -4.28416443 17.89439392 C-4.01131894 16.11110271 -3.73814822 14.32786122 -3.46459961 12.54467773 C-3.34559296 11.73469833 -3.2265863 10.92471893 -3.10397339 10.0901947 C-2.53243176 6.41572612 -1.97790607 3.19168534 0 0 Z " fill="#002F56" transform="translate(384,391)"/>
<path d="M0 0 C14.85 0 29.7 0 45 0 C44.67 0.99 44.34 1.98 44 3 C41.69175158 3.71023028 39.41696017 4.01261364 37.03125 4.375 C36.02578125 4.684375 36.02578125 4.684375 35 5 C33.78932337 8.63202989 33.87544424 11.9511935 33.90234375 15.73046875 C33.90335083 16.39582642 33.90435791 17.06118408 33.90539551 17.7467041 C33.91061894 20.22698699 33.92458022 22.70724526 33.9375 25.1875 C33.958125 30.735625 33.97875 36.28375 34 42 C50.83 42.33 67.66 42.66 85 43 C84.67 30.46 84.34 17.92 84 5 C80.04 4.34 76.08 3.68 72 3 C72 2.01 72 1.02 72 0 C86.52 0 101.04 0 116 0 C116 0.99 116 1.98 116 3 C115.36191406 3.13277344 114.72382813 3.26554687 114.06640625 3.40234375 C113.24011719 3.57894531 112.41382813 3.75554687 111.5625 3.9375 C110.73878906 4.11152344 109.91507812 4.28554688 109.06640625 4.46484375 C107.02338796 4.80752994 107.02338796 4.80752994 106 6 C104.46874689 22.50578951 104.96283431 39.15498131 105.24194336 55.70825195 C105.30354851 59.38068383 105.34999816 63.05314531 105.39277363 66.72583866 C105.42807011 69.58352906 105.47228789 72.4410291 105.51912498 75.29855156 C105.55017127 77.30817226 105.57281547 79.31791715 105.59529114 81.32765198 C105.61838852 82.54089645 105.6414859 83.75414093 105.6652832 85.00415039 C105.68162308 86.06888077 105.69796295 87.13361115 105.71479797 88.23060608 C106.00167661 91.01628039 106.42970164 92.69337964 108 95 C110.63571568 95.91956802 110.63571568 95.91956802 113.625 96.25 C114.62789063 96.39953125 115.63078125 96.5490625 116.6640625 96.703125 C117.43492187 96.80109375 118.20578125 96.8990625 119 97 C119.33 97.99 119.66 98.98 120 100 C104.82 100 89.64 100 74 100 C74 99.01 74 98.02 74 97 C74.63808594 96.82984375 75.27617187 96.6596875 75.93359375 96.484375 C76.75988281 96.24203125 77.58617187 95.9996875 78.4375 95.75 C79.26121094 95.51796875 80.08492188 95.2859375 80.93359375 95.046875 C83.16049675 94.22128554 83.16049675 94.22128554 83.61631775 92.18670654 C83.98646554 90.07713647 84.15669406 88.10546158 84.20532227 85.96582031 C84.22550415 85.17449707 84.24568604 84.38317383 84.26647949 83.56787109 C84.28295532 82.74625488 84.29943115 81.92463867 84.31640625 81.078125 C84.33505737 80.3154834 84.3537085 79.5528418 84.3729248 78.76708984 C84.4410351 75.92817364 84.50130321 73.08907365 84.5625 70.25 C84.706875 63.8975 84.85125 57.545 85 51 C67.84 51 50.68 51 33 51 C33.144375 56.775 33.28875 62.55 33.4375 68.5 C33.48060303 70.30662109 33.52370605 72.11324219 33.56811523 73.97460938 C33.60629563 75.43099781 33.64476948 76.88737859 33.68359375 78.34375 C33.70006958 79.08012695 33.71654541 79.81650391 33.73352051 80.57519531 C33.86811337 85.4431049 34.33022787 90.17573384 35 95 C39.29 95.66 43.58 96.32 48 97 C48 97.99 48 98.98 48 100 C32.82 100 17.64 100 2 100 C2 99.01 2 98.02 2 97 C2.63808594 96.87882812 3.27617187 96.75765625 3.93359375 96.6328125 C4.75988281 96.46523438 5.58617187 96.29765625 6.4375 96.125 C7.26121094 95.96257812 8.08492187 95.80015625 8.93359375 95.6328125 C9.61550781 95.42398438 10.29742187 95.21515625 11 95 C15.07958323 86.84083354 13.16362365 74.38597125 13.16796875 65.3515625 C13.17118917 63.76500418 13.17455381 62.17844615 13.17805481 60.59188843 C13.18400185 57.28895376 13.18589893 53.9860451 13.18530273 50.68310547 C13.18520051 46.45654389 13.19893469 42.23014801 13.21607494 38.00362587 C13.22719365 34.73679843 13.2292221 31.47001138 13.22869301 28.20316696 C13.22987015 26.64428503 13.23427698 25.08540196 13.24202538 23.52653885 C13.25183766 21.35172017 13.24894423 19.17726612 13.24291992 17.00244141 C13.24434494 15.76765045 13.24576996 14.5328595 13.24723816 13.26065063 C13.00306738 10.04045356 12.53329325 7.83323932 11 5 C8.37633717 3.96229323 8.37633717 3.96229323 5.375 3.6875 C4.37210938 3.54699219 3.36921875 3.40648437 2.3359375 3.26171875 C1.17964844 3.13216797 1.17964844 3.13216797 0 3 C0 2.01 0 1.02 0 0 Z " fill="#003057" transform="translate(166,394)"/>
<path d="M0 0 C4.77576339 0.4682121 8.04476345 1.24331998 12 4 C11.38619731 8.37845916 9.75315218 11.67447374 7.6875 15.5625 C4.42109784 21.84720192 2.00634714 28.19586621 0 35 C0.4846875 34.03320312 0.969375 33.06640625 1.46875 32.0703125 C5.59546041 24.00060087 9.95533641 16.832399 16 10 C19.53659092 10.56002416 20.95559692 11.67774324 23.1875 14.4375 C23.95126953 15.36369141 23.95126953 15.36369141 24.73046875 16.30859375 C27.05785213 19.40938454 27.44175939 22.01092455 27.38818359 25.90087891 C26.68388253 29.70942011 24.1268064 31.71632122 21.3125 34.1875 C20.78205078 34.68185547 20.25160156 35.17621094 19.70507812 35.68554688 C18.65377504 36.66461319 17.59631301 37.63711244 16.5324707 38.60253906 C10.98560539 43.66072881 8.36747481 46.88428211 7.6875 54.5 C8.10510222 59.17714486 9.01755641 62.15879921 12.53515625 65.42578125 C17.74284479 69.26683979 23.55299155 71.56934885 29.5 74 C47.79190966 81.4986782 47.79190966 81.4986782 51.359375 89.8984375 C52.38679723 93.2688836 52.7490932 96.48730477 53 100 C52.01 100 51.02 100 50 100 C48.61061923 98.03852126 47.2739589 96.03833424 46 94 C45.67 94 45.34 94 45 94 C45.495 94.86625 45.99 95.7325 46.5 96.625 C48.06086639 100.13694937 48.34410712 102.21482169 48 106 C47.67 106.66 47.34 107.32 47 108 C44.03 108 41.06 108 38 108 C37.90203125 107.32453125 37.8040625 106.6490625 37.703125 105.953125 C36.62920914 99.04032595 36.62920914 99.04032595 32 94 C32.515625 95.010625 33.03125 96.02125 33.5625 97.0625 C35.49055812 100.84149392 34.73942795 103.9209041 34 108 C30.10430865 108.08732726 26.20887018 108.14050185 22.3125 108.1875 C21.20970703 108.21263672 20.10691406 108.23777344 18.97070312 108.26367188 C17.3706543 108.27817383 17.3706543 108.27817383 15.73828125 108.29296875 C14.75899658 108.3086792 13.77971191 108.32438965 12.77075195 108.34057617 C9.5033067 107.93894729 7.64460346 106.92800879 5 105 C3.84986807 102.69973614 3.70767601 100.98752064 3.46484375 98.4296875 C3.37783203 97.53378906 3.29082031 96.63789063 3.20117188 95.71484375 C3.11416016 94.77769531 3.02714844 93.84054687 2.9375 92.875 C2.84662109 91.93011719 2.75574219 90.98523438 2.66210938 90.01171875 C2.43785901 87.67479389 2.21730943 85.33757884 2 83 C2.804375 83.495 3.60875 83.99 4.4375 84.5 C6.64896185 86.08419653 6.64896185 86.08419653 8 86 C2.6489529 79.79278537 -4.56141873 78.46891414 -12.25 76.9375 C-13.83975682 76.61929305 -15.42836933 76.29530082 -17.015625 75.96484375 C-17.70946289 75.8268335 -18.40330078 75.68882324 -19.11816406 75.54663086 C-21 75 -21 75 -24 73 C-24.893375 65.98062503 -22.65186711 60.44024869 -20 54 C-19.01 54.99 -18.02 55.98 -17 57 C-17.22816406 56.33613281 -17.45632813 55.67226563 -17.69140625 54.98828125 C-17.97886719 54.10527344 -18.26632812 53.22226562 -18.5625 52.3125 C-18.85253906 51.44238281 -19.14257812 50.57226562 -19.44140625 49.67578125 C-20.06669278 46.68052759 -19.93198918 44.90220465 -19 42 C-18.13375 41.05125 -17.2675 40.1025 -16.375 39.125 C-8.15546027 29.9593262 -4.91893989 17.25163988 -1.9453125 5.60546875 C-1 2 -1 2 0 0 Z M10 90 C11 92 11 92 11 92 Z " fill="#003057" transform="translate(345,266)"/>
<path d="M0 0 C1.95715942 0.00978882 1.95715942 0.00978882 3.95385742 0.01977539 C30.32119921 0.38369921 30.32119921 0.38369921 34.3125 4.375 C34.32924294 6.23083223 34.27525607 8.08739363 34.19140625 9.94140625 C34.14306641 11.06611328 34.09472656 12.19082031 34.04492188 13.34960938 C33.98884766 14.53361328 33.93277344 15.71761719 33.875 16.9375 C33.82279297 18.12537109 33.77058594 19.31324219 33.71679688 20.53710938 C33.5866434 23.48331066 33.4516636 26.42921276 33.3125 29.375 C31.9925 29.705 30.6725 30.035 29.3125 30.375 C29.14234375 29.63894531 28.9721875 28.90289062 28.796875 28.14453125 C27.05472833 20.42950361 27.05472833 20.42950361 22.3125 14.375 C14.16288708 10.38862841 7.15541281 9.17510007 -1.8125 9.125 C-2.71226563 9.104375 -3.61203125 9.08375 -4.5390625 9.0625 C-14.56394516 9.00488573 -22.39880085 11.02556795 -29.7109375 18.06640625 C-38.99968788 28.91551983 -39.49509341 42.39470213 -38.87841797 55.96923828 C-38.00960587 66.91715958 -33.17094679 76.057439 -25.36328125 83.62890625 C-14.21031281 93.13606773 -2.99331603 94.97902334 11.3125 94.375 C17.81727461 93.71700257 21.72785501 92.0688032 26.3125 87.375 C28.52491275 84.21441036 29.97166707 80.98493482 31.3125 77.375 C32.3025 77.375 33.2925 77.375 34.3125 77.375 C34.75674979 84.81207052 34.38430669 92.48702391 31.3125 99.375 C21.42743007 107.11262371 2.89082775 105.27667578 -9.05273438 104.15234375 C-25.51171416 102.14618484 -40.29022591 96.41277807 -51.125 83.375 C-60.08834985 71.30191653 -63.4186949 57.13269871 -61.21875 42.19140625 C-58.69497632 29.43733571 -52.70792063 18.49876922 -42.0390625 10.88671875 C-28.74206162 2.33864676 -15.66054854 -0.17058541 0 0 Z " fill="#002F56" transform="translate(116.6875,391.625)"/>
<path d="M0 0 C-0.66 6.6 -1.32 13.2 -2 20 C-3.32 20 -4.64 20 -6 20 C-6.268125 18.88625 -6.53625 17.7725 -6.8125 16.625 C-7.65809019 12.78159049 -7.65809019 12.78159049 -11 11 C-14.36288991 10.14117605 -17.62136221 9.83221144 -21.08203125 9.68359375 C-22.34237183 9.62643188 -22.34237183 9.62643188 -23.62817383 9.56811523 C-24.67900146 9.52501221 -25.7298291 9.48190918 -26.8125 9.4375 C-30.174375 9.293125 -33.53625 9.14875 -37 9 C-37 20.22 -37 31.44 -37 43 C-30.255625 42.8453125 -30.255625 42.8453125 -23.375 42.6875 C-21.96782715 42.66260498 -20.5606543 42.63770996 -19.11083984 42.61206055 C-17.42788818 42.56239136 -17.42788818 42.56239136 -15.7109375 42.51171875 C-14.56931152 42.48553467 -13.42768555 42.45935059 -12.25146484 42.43237305 C-8.64167671 41.95235091 -6.14767746 40.79063241 -3 39 C-2.07678145 42.03905386 -1.97837239 44.39994788 -2.33984375 47.546875 C-2.43330078 48.39121094 -2.52675781 49.23554688 -2.62304688 50.10546875 C-2.72681641 50.97816406 -2.83058594 51.85085938 -2.9375 52.75 C-3.08735352 54.08224609 -3.08735352 54.08224609 -3.24023438 55.44140625 C-3.48715401 57.62840871 -3.74061635 59.81444667 -4 62 C-5.32 62 -6.64 62 -8 62 C-8.10957031 61.43410156 -8.21914063 60.86820312 -8.33203125 60.28515625 C-8.49058594 59.55167969 -8.64914062 58.81820312 -8.8125 58.0625 C-8.96332031 57.33160156 -9.11414063 56.60070312 -9.26953125 55.84765625 C-9.51058594 55.23792969 -9.75164063 54.62820313 -10 54 C-12.98296854 53.00567715 -15.41901995 52.71277619 -18.54296875 52.46484375 C-19.61611328 52.37783203 -20.68925781 52.29082031 -21.79492188 52.20117188 C-22.91447266 52.11416016 -24.03402344 52.02714844 -25.1875 51.9375 C-26.31865234 51.84662109 -27.44980469 51.75574219 -28.61523438 51.66210938 C-31.40990736 51.43806386 -34.20481111 51.21749856 -37 51 C-36.90633638 55.91162893 -36.80021404 60.82277241 -36.68261719 65.73388672 C-36.64437143 67.40405941 -36.60951085 69.07431323 -36.578125 70.74462891 C-36.53237839 73.14775557 -36.47440075 75.55032584 -36.4140625 77.953125 C-36.40251129 78.69806213 -36.39096008 79.44299927 -36.37905884 80.21051025 C-36.240529 85.42262787 -36.240529 85.42262787 -34 90 C-29.2634124 92.24364676 -24.69646284 92.33519656 -19.5625 92.3125 C-18.83740234 92.32861328 -18.11230469 92.34472656 -17.36523438 92.36132812 C-12.19353212 92.36597476 -8.56889265 91.46639338 -4 89 C-2.00902154 86.01353231 -1.05875074 83.40312738 0 80 C0.99 80 1.98 80 3 80 C3.2635606 86.88186004 2.84472171 93.33476461 1 100 C0 101 0 101 -2.66383362 101.12025452 C-4.4458744 101.1169236 -4.4458744 101.1169236 -6.26391602 101.11352539 C-7.2443689 101.11374443 -7.2443689 101.11374443 -8.24462891 101.1139679 C-10.41442128 101.11326883 -12.58412879 101.10547678 -14.75390625 101.09765625 C-16.25463311 101.09579205 -17.75536057 101.09436816 -19.25608826 101.09336853 C-23.21318226 101.08954352 -27.17023978 101.0797134 -31.12731934 101.06866455 C-35.16234849 101.05845006 -39.19738353 101.05387083 -43.23242188 101.04882812 C-51.15496469 101.03809111 -59.07747781 101.0210149 -67 101 C-67.33 100.01 -67.66 99.02 -68 98 C-63.05 97.01 -63.05 97.01 -58 96 C-56.85356113 86.84564271 -56.83619445 77.7470741 -56.83203125 68.5390625 C-56.82881256 66.85899834 -56.82544804 65.17893445 -56.82194519 63.49887085 C-56.81599067 59.99745025 -56.81410183 56.49605421 -56.81469727 52.99462891 C-56.81479947 48.50899226 -56.80107142 44.02351183 -56.78392506 39.53791237 C-56.77281761 36.07725294 -56.77077756 32.6166317 -56.77130699 29.15595627 C-56.77012791 27.50135121 -56.76571014 25.84674514 -56.75797462 24.19215775 C-56.74818648 21.88531614 -56.75104641 19.57881971 -56.75708008 17.27197266 C-56.75565506 15.96088531 -56.75423004 14.64979797 -56.75276184 13.29898071 C-56.98315168 10.2248127 -57.23089734 8.49237734 -59 6 C-61.40404738 5.08400573 -61.40404738 5.08400573 -64.125 4.75 C-65.03507812 4.60046875 -65.94515625 4.4509375 -66.8828125 4.296875 C-67.58148438 4.19890625 -68.28015625 4.1009375 -69 4 C-69.33 3.01 -69.66 2.02 -70 1 C-62.05438211 0.86884522 -54.10875297 0.73840209 -46.16310883 0.60884857 C-42.47299126 0.54865934 -38.78287793 0.48823193 -35.09277344 0.42724609 C-31.52662563 0.36831787 -27.9604678 0.31003372 -24.39430237 0.25218201 C-22.38261199 0.2193836 -20.37093232 0.18593115 -18.35925293 0.15246582 C-17.11857056 0.13244507 -15.87788818 0.11242432 -14.59960938 0.09179688 C-13.51595093 0.07403198 -12.43229248 0.05626709 -11.3157959 0.03796387 C-7.54408991 -0.0052199 -3.77195319 0 0 0 Z " fill="#003057" transform="translate(577,393)"/>
<path d="M0 0 C14.19 0 28.38 0 43 0 C43 0.99 43 1.98 43 3 C42.04287109 3.19916016 42.04287109 3.19916016 41.06640625 3.40234375 C40.24011719 3.57894531 39.41382813 3.75554687 38.5625 3.9375 C37.73878906 4.11152344 36.91507812 4.28554688 36.06640625 4.46484375 C34.02338796 4.80752994 34.02338796 4.80752994 33 6 C31.44545811 22.66292703 31.96519001 39.47883066 32.24194336 56.19042969 C32.3035883 59.93246382 32.35001253 63.6745271 32.39277363 67.41681862 C32.42802998 70.32507959 32.47225243 73.23315194 32.51912498 76.1412468 C32.54010234 77.52310282 32.55802461 78.90500886 32.5727787 80.28694534 C32.59429649 82.20005068 32.62945955 84.11298797 32.6652832 86.02587891 C32.68162308 87.11059479 32.69796295 88.19531067 32.71479797 89.31289673 C32.81360624 92.2228416 32.81360624 92.2228416 35 95 C37.64691668 95.80092254 37.64691668 95.80092254 40.625 96.1875 C42.12933594 96.42533203 42.12933594 96.42533203 43.6640625 96.66796875 C44.43492187 96.77753906 45.20578125 96.88710938 46 97 C46.33 97.99 46.66 98.98 47 100 C31.82 100 16.64 100 1 100 C1 99.01 1 98.02 1 97 C5.455 96.505 5.455 96.505 10 96 C11.12114094 91.51658156 11.13451577 87.12785671 11.11352539 82.5378418 C11.11367142 81.6983046 11.11381744 80.8587674 11.1139679 79.99378967 C11.11327326 77.22890608 11.10550188 74.46409052 11.09765625 71.69921875 C11.09579048 69.77822405 11.09436732 67.85722887 11.09336853 65.93623352 C11.08955591 60.88759033 11.07973633 55.83897604 11.06866455 50.79034424 C11.05842345 45.63562409 11.05386513 40.48089927 11.04882812 35.32617188 C11.03811294 25.21743524 11.02105158 15.10872003 11 5 C7.7 4.34 4.4 3.68 1 3 C0.67 2.01 0.34 1.02 0 0 Z " fill="#003057" transform="translate(302,394)"/>
<path d="M0 0 C11.88 0 23.76 0 36 0 C38.64 5.94 41.28 11.88 44 18 C46.26142851 12.45144004 46.26142851 12.45144004 48.51733398 6.90063477 C48.79907471 6.21283936 49.08081543 5.52504395 49.37109375 4.81640625 C49.65911865 4.10943604 49.94714355 3.40246582 50.24389648 2.67407227 C51 1 51 1 52 0 C54.52094076 -0.08847743 57.01430893 -0.11527301 59.53515625 -0.09765625 C60.66503212 -0.09553383 60.66503212 -0.09553383 61.81773376 -0.09336853 C64.2326956 -0.08775376 66.64756601 -0.07519883 69.0625 -0.0625 C70.69596221 -0.0574869 72.32942586 -0.05292366 73.96289062 -0.04882812 C77.97529585 -0.03777954 81.98763241 -0.02050506 86 0 C86.495 2.97 86.495 2.97 87 6 C85.68 6 84.36 6 83 6 C82.5875 5.525625 82.175 5.05125 81.75 4.5625 C78.90372748 2.02118525 75.73681419 2.30629625 72 2 C72 5.3 72 8.6 72 12 C75.96 12 79.92 12 84 12 C83.67 12.99 83.34 13.98 83 15 C79.37 15 75.74 15 72 15 C72 18.63 72 22.26 72 26 C75.63 25.67 79.26 25.34 83 25 C83.99 22.525 83.99 22.525 85 20 C85.66 20 86.32 20 87 20 C87.04241723 22.33294775 87.04092937 24.66702567 87 27 C86 28 86 28 83.77514648 28.11352539 C82.81680908 28.10828857 81.85847168 28.10305176 80.87109375 28.09765625 C79.31938477 28.09282227 79.31938477 28.09282227 77.73632812 28.08789062 C76.64771484 28.07951172 75.55910156 28.07113281 74.4375 28.0625 C72.7987793 28.05573242 72.7987793 28.05573242 71.12695312 28.04882812 C68.41791505 28.03699826 65.70898401 28.02051543 63 28 C63 27.34 63 26.68 63 26 C63.99 26 64.98 26 66 26 C66 18.08 66 10.16 66 2 C63.36 2 60.72 2 58 2 C58 9.92 58 17.84 58 26 C59.32 26 60.64 26 62 26 C62 26.66 62 27.32 62 28 C57.71 28 53.42 28 49 28 C49.33 27.34 49.66 26.68 50 26 C50.99 26 51.98 26 53 26 C52.67 20.39 52.34 14.78 52 9 C51.54109375 10.21558594 51.0821875 11.43117188 50.609375 12.68359375 C49.99039883 14.26854789 49.37056238 15.85316625 48.75 17.4375 C48.44964844 18.23994141 48.14929688 19.04238281 47.83984375 19.86914062 C47.53691406 20.63291016 47.23398437 21.39667969 46.921875 22.18359375 C46.64956055 22.89056396 46.37724609 23.59753418 46.09667969 24.32592773 C45 26 45 26 41 27 C38.36 21.06 35.72 15.12 33 9 C32.67 14.61 32.34 20.22 32 26 C33.32 26 34.64 26 36 26 C36 26.66 36 27.32 36 28 C32.7 28 29.4 28 26 28 C26.33 27.34 26.66 26.68 27 26 C27.99 26 28.98 26 30 26 C30 18.08 30 10.16 30 2 C28.68 2 27.36 2 26 2 C26 3.98 26 5.96 26 8 C25.34 8 24.68 8 24 8 C23.79375 7.195625 23.5875 6.39125 23.375 5.5625 C22.694375 4.2940625 22.694375 4.2940625 22 3 C19.03 2.505 19.03 2.505 16 2 C16.33 9.92 16.66 17.84 17 26 C17.66 26.33 18.32 26.66 19 27 C19 27.66 19 28.32 19 29 C14.71 29 10.42 29 6 29 C6 28.34 6 27.68 6 27 C6.99 26.67 7.98 26.34 9 26 C9.33 18.08 9.66 10.16 10 2 C8.02 2.33 6.04 2.66 4 3 C2.54708727 5.46255685 2.54708727 5.46255685 2 8 C1.34 8 0.68 8 0 8 C0 5.36 0 2.72 0 0 Z " fill="#7D5930" transform="translate(289,525)"/>
<path d="M0 0 C4.92888103 2.31947343 8.53229846 6.16664472 11 11 C10.75721949 14.40548884 9.21249996 16.18327427 6.9375 18.625 C4.55013292 20.93402177 4.55013292 20.93402177 4 24 C6.31 21.69 8.62 19.38 11 17 C11.99 17.33 12.98 17.66 14 18 C16.46095272 30.98592017 15.78331289 42.0232142 14 55 C11 55 11 55 9.39453125 53.5390625 C8.87246094 52.90742187 8.35039063 52.27578125 7.8125 51.625 C7.28269531 50.99851563 6.75289063 50.37203125 6.20703125 49.7265625 C5 48 5 48 5 46 C4.14728516 45.60361328 4.14728516 45.60361328 3.27734375 45.19921875 C0.85156393 43.92183555 -1.23101628 42.43852594 -3.4375 40.8125 C-9.33590956 36.61572429 -15.57542386 33.31298676 -22 30 C-20.60883184 26.78204537 -19.0397723 24.88634064 -16.375 22.625 C-15.66730469 22.02300781 -14.95960938 21.42101562 -14.23046875 20.80078125 C-11.48030625 18.58042238 -8.65181795 16.491239 -5.76171875 14.45703125 C-2.99863893 12.17182333 -1.25827071 10.19080541 -0.48828125 6.640625 C-0.43027344 5.85171875 -0.37226563 5.0628125 -0.3125 4.25 C-0.24675781 3.45078125 -0.18101562 2.6515625 -0.11328125 1.828125 C-0.07589844 1.22484375 -0.03851563 0.6215625 0 0 Z M1 26 C2 28 2 28 2 28 Z " fill="#744F29" transform="translate(504,62)"/>
<path d="M0 0 C3.64081005 -0.9951021 6.37512363 -1.12827278 10 0 C14.46736212 3.89370406 17.74527882 9.0921222 21 14 C21.99 15.485 21.99 15.485 23 17 C23.33 12.05 23.66 7.1 24 2 C22.68 2 21.36 2 20 2 C20 1.34 20 0.68 20 0 C27.26 0 34.52 0 42 0 C42 0.66 42 1.32 42 2 C41.01 2 40.02 2 39 2 C39.97570961 4.81374361 40.95538306 7.6259936 41.9375 10.4375 C42.35418945 11.64116211 42.35418945 11.64116211 42.77929688 12.86914062 C43.04677734 13.63291016 43.31425781 14.39667969 43.58984375 15.18359375 C43.95903931 16.24404907 43.95903931 16.24404907 44.33569336 17.32592773 C44.87467975 19.00682632 44.87467975 19.00682632 46 20 C47.98 14.06 49.96 8.12 52 2 C51.01 2 50.02 2 49 2 C49 1.34 49 0.68 49 0 C59.89 0 70.78 0 82 0 C82.495 3.465 82.495 3.465 83 7 C82.01 7 81.02 7 80 7 C79.505 5.515 79.505 5.515 79 4 C76.70370006 2.85185003 74.92301914 2.69230191 72.375 2.4375 C70.93125 2.293125 69.4875 2.14875 68 2 C68 5.3 68 8.6 68 12 C71.96 12 75.92 12 80 12 C79.67 12.99 79.34 13.98 79 15 C75.37 15 71.74 15 68 15 C68 18.63 68 22.26 68 26 C74.9207882 25.68541872 78.08825776 24.91174224 83 20 C84 23 84 23 83 28 C75.08 28 67.16 28 59 28 C59 27.34 59 26.68 59 26 C60.32 26 61.64 26 63 26 C62.67 18.41 62.34 10.82 62 3 C60.02 3 58.04 3 56 3 C53.03 11.25 50.06 19.5 47 28 C45.35 28 43.7 28 42 28 C40.4946891 24.04366575 38.99665407 20.08461633 37.5 16.125 C37.07074219 14.99707031 36.64148438 13.86914062 36.19921875 12.70703125 C35.79316406 11.63066406 35.38710937 10.55429687 34.96875 9.4453125 C34.40317383 7.95281982 34.40317383 7.95281982 33.82617188 6.43017578 C33 4 33 4 33 2 C31.02 2 29.04 2 27 2 C27 10.58 27 19.16 27 28 C25.68 28 24.36 28 23 28 C21.27661133 26.27172852 21.27661133 26.27172852 19.58203125 23.87890625 C18.66067383 22.59983398 18.66067383 22.59983398 17.72070312 21.29492188 C17.09099609 20.39322266 16.46128906 19.49152344 15.8125 18.5625 C14.54842341 16.79279278 13.28411306 15.0232525 12.01953125 13.25390625 C11.46370361 12.46314697 10.90787598 11.6723877 10.33520508 10.85766602 C9.13204638 9.07821775 9.13204638 9.07821775 8 8 C7.67 13.94 7.34 19.88 7 26 C7.99 26 8.98 26 10 26 C10 26.66 10 27.32 10 28 C6.7 28 3.4 28 0 28 C0.33 27.34 0.66 26.68 1 26 C1.99 26 2.98 26 4 26 C4 18.08 4 10.16 4 2 C2.68 2 1.36 2 0 2 C0 1.34 0 0.68 0 0 Z " fill="#7C5930" transform="translate(182,525)"/>
<path d="M0 0 C3.13060948 -0.51177269 5.88002012 -0.63680674 9 0 C11.9332007 2.24316469 13.92830197 5.00959708 16.0625 8 C16.93165039 9.1446875 16.93165039 9.1446875 17.81835938 10.3125 C19.23771631 12.18933562 20.62243686 14.09227731 22 16 C22.33 11.38 22.66 6.76 23 2 C21.68 2 20.36 2 19 2 C19 1.34 19 0.68 19 0 C30.88 0 42.76 0 55 0 C55.495 3.96 55.495 3.96 56 8 C55.01 8 54.02 8 53 8 C52.79375 7.195625 52.5875 6.39125 52.375 5.5625 C51.694375 4.2940625 51.694375 4.2940625 51 3 C49.02 2.67 47.04 2.34 45 2 C45.495 13.88 45.495 13.88 46 26 C46.99 26.33 47.98 26.66 49 27 C49 27.66 49 28.32 49 29 C44.71 29 40.42 29 36 29 C36 28.34 36 27.68 36 27 C36.99 26.67 37.98 26.34 39 26 C39 18.41 39 10.82 39 3 C37.02 3 35.04 3 33 3 C32.34 4.65 31.68 6.3 31 8 C30.34 8 29.68 8 29 8 C29 6.02 29 4.04 29 2 C28.01 2 27.02 2 26 2 C26 10.58 26 19.16 26 28 C24.68 28 23.36 28 22 28 C20.1583536 25.84093162 18.61804049 23.78867681 17.0625 21.4375 C16.43698242 20.52387695 16.43698242 20.52387695 15.79882812 19.59179688 C15.00027597 18.42544172 14.20727781 17.255247 13.42211914 16.07983398 C11.32967549 13.0196576 9.15474021 10.0166363 7 7 C6.67 13.27 6.34 19.54 6 26 C7.32 26 8.64 26 10 26 C10 26.66 10 27.32 10 28 C6.7 28 3.4 28 0 28 C0 27.34 0 26.68 0 26 C0.99 26 1.98 26 3 26 C3 18.08 3 10.16 3 2 C2.01 2 1.02 2 0 2 C0 1.34 0 0.68 0 0 Z " fill="#7D5930" transform="translate(377,525)"/>
<path d="M0 0 C4.29 0 8.58 0 13 0 C12.67 0.66 12.34 1.32 12 2 C11.01 2 10.02 2 9 2 C9.33 9.26 9.66 16.52 10 24 C12.79870027 25.39935013 14.90498792 25.25265405 18 25 C20.16488068 23.40333281 20.90442537 22.48111112 21.43237305 19.82348633 C21.45855713 19.00130615 21.48474121 18.17912598 21.51171875 17.33203125 C21.54716797 16.43935547 21.58261719 15.54667969 21.61914062 14.62695312 C21.64169922 13.69818359 21.66425781 12.76941406 21.6875 11.8125 C21.72166016 10.87212891 21.75582031 9.93175781 21.79101562 8.96289062 C21.87348218 6.64204607 21.94263403 4.32157852 22 2 C21.01 2 20.02 2 19 2 C19 1.34 19 0.68 19 0 C23.05664947 -0.0990914 27.1128277 -0.17157106 31.17041016 -0.21972656 C32.5497668 -0.23980642 33.92903869 -0.26707666 35.30810547 -0.30175781 C37.29356979 -0.35042817 39.27966254 -0.37086418 41.265625 -0.390625 C43.05661621 -0.4220459 43.05661621 -0.4220459 44.88378906 -0.45410156 C48.61964139 0.0902956 49.76573442 1.01151773 52 4 C52.75856436 7.96139166 52.3337936 9.48818314 50.125 12.875 C45.59078496 15.95826623 42.412097 15.36080647 37 15 C37 18.63 37 22.26 37 26 C38.32 26 39.64 26 41 26 C41 26.66 41 27.32 41 28 C37.04 28 33.08 28 29 28 C29 27.34 29 26.68 29 26 C29.99 26 30.98 26 32 26 C32 18.08 32 10.16 32 2 C29.69 2 27.38 2 25 2 C25.01571045 2.57967529 25.0314209 3.15935059 25.04760742 3.7565918 C25.11022791 6.40012739 25.14907518 9.04350655 25.1875 11.6875 C25.21263672 12.59951172 25.23777344 13.51152344 25.26367188 14.45117188 C25.35882136 23.17320802 25.35882136 23.17320802 22 27 C18.36291478 29.5139771 15.41003799 29.13371619 11.19140625 28.54296875 C8.00743362 27.75407001 6.19639805 26.40231037 4 24 C3.06604773 21.1837747 2.88124599 18.62556093 2.90234375 15.671875 C2.90556641 14.87265625 2.90878906 14.0734375 2.91210938 13.25 C2.92048828 12.425 2.92886719 11.6 2.9375 10.75 C2.94201172 9.90953125 2.94652344 9.0690625 2.95117188 8.203125 C2.96292039 6.13538599 2.98085478 4.06768376 3 2 C2.01 2 1.02 2 0 2 C0 1.34 0 0.68 0 0 Z M37 2 C36.97311849 3.64574566 36.95365877 5.29161413 36.9375 6.9375 C36.92589844 7.85402344 36.91429687 8.77054688 36.90234375 9.71484375 C36.74050951 11.96593327 36.74050951 11.96593327 38 13 C42.3409369 12.85841338 42.3409369 12.85841338 46 11 C46.25003964 7.54178598 46.25003964 7.54178598 46 4 C44.04366025 1.58878141 44.04366025 1.58878141 40.375 1.875 C38.704375 1.936875 38.704375 1.936875 37 2 Z " fill="#7D5930" transform="translate(530,525)"/>
<path d="M0 0 C34.65 0 69.3 0 105 0 C105 1.65 105 3.3 105 5 C70.35 5 35.7 5 0 5 C0 3.35 0 1.7 0 0 Z " fill="#725029" transform="translate(54,538)"/>
<path d="M0 0 C34.32 0 68.64 0 104 0 C104 1.65 104 3.3 104 5 C69.68 5 35.36 5 0 5 C0 3.35 0 1.7 0 0 Z " fill="#725029" transform="translate(692,538)"/>
<path d="M0 0 C3.3956697 -0.08745946 6.79104773 -0.14054444 10.1875 -0.1875 C11.14720703 -0.21263672 12.10691406 -0.23777344 13.09570312 -0.26367188 C21.97941639 -0.35589035 21.97941639 -0.35589035 26 3 C29.3964796 6.86495955 29.4607613 10.62880569 29.27734375 15.56640625 C28.88171937 19.0378709 28.08059766 21.18112575 26 24 C20.27027258 28.10332042 15.99535424 28.52415089 9.0625 28.25 C8.18787109 28.23195313 7.31324219 28.21390625 6.41210938 28.1953125 C4.27425892 28.14858353 2.13697955 28.07685441 0 28 C0.33 27.34 0.66 26.68 1 26 C1.66 26 2.32 26 3 26 C3 18.08 3 10.16 3 2 C2.01 2 1.02 2 0 2 C0 1.34 0 0.68 0 0 Z M9 2 C9 9.92 9 17.84 9 26 C17.54305506 25.93290025 17.54305506 25.93290025 21 22.3125 C23.85818645 17.57862869 24.31132482 14.80568396 23.375 9.375 C21.77389606 5.4450176 20.72283169 4.02327809 17 2 C14.36 2 11.72 2 9 2 Z " fill="#7D5930" transform="translate(644,525)"/>
<path d="M0 0 C3.08315385 -0.08733513 6.16598827 -0.14050127 9.25 -0.1875 C10.12269531 -0.21263672 10.99539063 -0.23777344 11.89453125 -0.26367188 C18.3476432 -0.33756247 18.3476432 -0.33756247 21.57421875 1.33203125 C23 3 23 3 23.5625 5.875 C22.83221999 9.93211117 21.0062667 11.29435997 18 14 C18 16.81699987 19.25897888 18.17160824 20.8125 20.5 C21.33457031 21.2940625 21.85664063 22.088125 22.39453125 22.90625 C23.99977464 25.23294638 23.99977464 25.23294638 27 27 C27 27.66 27 28.32 27 29 C23.6873794 29.39060379 21.10571646 29.27275406 18 28 C14.94194181 24.21620699 11 19.04215929 11 14 C10.34 14 9.68 14 9 14 C9 17.96 9 21.92 9 26 C10.32 26.33 11.64 26.66 13 27 C13 27.33 13 27.66 13 28 C8.71 28 4.42 28 0 28 C0 27.34 0 26.68 0 26 C0.99 26 1.98 26 3 26 C3 18.08 3 10.16 3 2 C2.01 2 1.02 2 0 2 C0 1.34 0 0.68 0 0 Z M9 2 C9 5.3 9 8.6 9 12 C13.34184202 11.81535634 13.34184202 11.81535634 17 10 C17.25005386 7.04182893 17.25005386 7.04182893 17 4 C15.10244856 1.65026182 15.10244856 1.65026182 11.875 1.875 C10.92625 1.91625 9.9775 1.9575 9 2 Z " fill="#79572F" transform="translate(472,525)"/>
<path d="M0 0 C3.42112537 2.9180187 4.84878677 5.74090081 5.4453125 10.21484375 C5.70321089 15.9315913 5.02533913 19.3704471 1.125 23.8125 C-1.75141688 26.79164606 -4.67402923 27.50377548 -8.78515625 27.87890625 C-13.38487155 27.73274707 -16.81269213 25.70707505 -20.25 22.8125 C-23.3530343 18.99338087 -23.20825274 15.0337688 -23.16015625 10.3203125 C-22.63421499 5.69491127 -20.20075738 2.97755952 -16.8125 0 C-11.46373202 -3.27827715 -5.58813636 -2.30814328 0 0 Z M-15.95703125 4.703125 C-18.14923718 9.74053436 -17.84148788 15.74247967 -16.2109375 20.921875 C-15.27602623 22.83596334 -15.27602623 22.83596334 -12.875 24.8125 C-9.375 25.64583333 -9.375 25.64583333 -5.875 24.8125 C-2.96782927 22.59386971 -2.03518357 21.29305071 -0.875 17.8125 C-0.37491585 12.13846832 -0.12679503 7.42567535 -3.875 2.8125 C-5.74752617 0.55835812 -5.74752617 0.55835812 -8.6875 0.3125 C-12.21579323 0.86595776 -13.827303 1.80834874 -15.95703125 4.703125 Z " fill="#7C582F" transform="translate(522.875,526.1875)"/>
<path d="M0 0 C0.69738281 0.05671875 1.39476562 0.1134375 2.11328125 0.171875 C3.82639312 0.31267872 5.53834611 0.46745972 7.25 0.625 C7.25 3.595 7.25 6.565 7.25 9.625 C6.26 9.625 5.27 9.625 4.25 9.625 C3.20107762 7.98868108 2.20093297 6.32014137 1.25 4.625 C-1.59083641 3.20458179 -3.60477278 3.31047728 -6.75 3.625 C-9.59780619 5.85706431 -10.59997666 7.17492999 -11.75 10.625 C-12.09547151 15.97980837 -12.21362011 19.2634043 -8.75 23.625 C-5.90173402 25.99192966 -5.90173402 25.99192966 -2.5625 25.25 C-1.1703125 24.940625 -1.1703125 24.940625 0.25 24.625 C0.91 22.645 1.57 20.665 2.25 18.625 C0.6 18.625 -1.05 18.625 -2.75 18.625 C-2.75 17.635 -2.75 16.645 -2.75 15.625 C1.21 15.625 5.17 15.625 9.25 15.625 C9.58 16.285 9.91 16.945 10.25 17.625 C9.26 17.625 8.27 17.625 7.25 17.625 C7.25 20.595 7.25 23.565 7.25 26.625 C1.67540091 29.03563744 -3.77966027 29.30910143 -9.75 28.625 C-13.3008578 27.16661198 -14.96632585 26.02441813 -16.84375 22.671875 C-18.83926115 17.75190787 -19.05997387 13.73990757 -17.6171875 8.63671875 C-15.99730637 4.87888639 -13.37070602 2.73687971 -10.0703125 0.47265625 C-6.69196708 -0.76152044 -3.50960436 -0.33172064 0 0 Z " fill="#7B582F" transform="translate(461.75,524.375)"/>
<path d="M0 0 C0.680625 0.09023438 1.36125 0.18046875 2.0625 0.2734375 C4 0.625 4 0.625 7 1.625 C7 3.935 7 6.245 7 8.625 C6.01 8.625 5.02 8.625 4 8.625 C3.79375 7.820625 3.5875 7.01625 3.375 6.1875 C2.92125 5.341875 2.4675 4.49625 2 3.625 C-1.00331073 2.63794797 -1.00331073 2.63794797 -4 2.625 C-5.29633621 3.69145115 -5.29633621 3.69145115 -5.0625 6.1875 C-5.041875 6.991875 -5.02125 7.79625 -5 8.625 C-3.86111328 9.20507812 -3.86111328 9.20507812 -2.69921875 9.796875 C-1.70535156 10.31765625 -0.71148437 10.8384375 0.3125 11.375 C1.29863281 11.88546875 2.28476562 12.3959375 3.30078125 12.921875 C5.9933117 14.62077989 7.39357512 15.90478721 9 18.625 C9.4375 21.625 9.4375 21.625 9 24.625 C6.76793569 27.47280619 5.45007001 28.47497666 2 29.625 C-2.83105392 29.89845588 -6.49302254 29.38382047 -11 27.625 C-11.33 25.315 -11.66 23.005 -12 20.625 C-10.68 20.625 -9.36 20.625 -8 20.625 C-7.34 22.275 -6.68 23.925 -6 25.625 C-3.66705225 25.66741723 -1.33297433 25.66592937 1 25.625 C2.21615968 24.58033891 2.21615968 24.58033891 2.5625 22.375 C2.29472499 19.58118199 2.29472499 19.58118199 0.390625 18.32421875 C-1.71634062 17.04498962 -3.84610794 15.82337618 -6 14.625 C-9 12.75 -9 12.75 -11 10.625 C-11.5625 7.0625 -11.5625 7.0625 -11 3.625 C-7.78398431 0.29808721 -4.51008312 -0.63209498 0 0 Z " fill="#7C592F" transform="translate(279,524.375)"/>
<path d="M0 0 C8.58 0 17.16 0 26 0 C26.33 2.64 26.66 5.28 27 8 C26.01 8 25.02 8 24 8 C23.79375 7.195625 23.5875 6.39125 23.375 5.5625 C22.694375 4.2940625 22.694375 4.2940625 22 3 C18.95833157 2.2984815 18.95833157 2.2984815 16 2 C16.08057261 5.95918677 16.19343945 9.91679837 16.3125 13.875 C16.33505859 15.00292969 16.35761719 16.13085938 16.38085938 17.29296875 C16.4340332 18.90751953 16.4340332 18.90751953 16.48828125 20.5546875 C16.51446533 21.54968262 16.54064941 22.54467773 16.56762695 23.56982422 C16.71031006 24.37178223 16.85299316 25.17374023 17 26 C17.99 26.66 18.98 27.32 20 28 C17.00519083 28.8723412 14.36424089 29.10829766 11.25 29.0625 C10.45078125 29.05347656 9.6515625 29.04445313 8.828125 29.03515625 C8.22484375 29.02355469 7.6215625 29.01195312 7 29 C7 28.34 7 27.68 7 27 C7.66 26.67 8.32 26.34 9 26 C9.33 18.08 9.66 10.16 10 2 C8.02 2.33 6.04 2.66 4 3 C2.54708727 5.46255685 2.54708727 5.46255685 2 8 C1.34 8 0.68 8 0 8 C0 5.36 0 2.72 0 0 Z " fill="#7D5931" transform="translate(617,525)"/>
<path d="M0 0 C3.56131801 2.76002146 4.87246748 4.43521312 5.875 8.875 C5.58307289 15.27577219 1.45302864 20.5318953 -1.93359375 25.7421875 C-4.07897276 28.83507843 -4.07897276 28.83507843 -5 32 C-5.99 32 -6.98 32 -8 32 C-10.29633824 28.55549263 -10.54016485 26.06187717 -11 22 C-10.34 22 -9.68 22 -9 22 C-8.896875 20.948125 -8.79375 19.89625 -8.6875 18.8125 C-8.02050668 15.11371887 -7.25009992 12.97013189 -5 10 C-4.34 10 -3.68 10 -3 10 C-2.86722656 9.36191406 -2.73445312 8.72382812 -2.59765625 8.06640625 C-2.42105469 7.24011719 -2.24445312 6.41382812 -2.0625 5.5625 C-1.88847656 4.73878906 -1.71445312 3.91507812 -1.53515625 3.06640625 C-1 1 -1 1 0 0 Z " fill="#744F29" transform="translate(640,107)"/>
<path d="M0 0 C4.29 0 8.58 0 13 0 C13 0.66 13 1.32 13 2 C11.68 2 10.36 2 9 2 C9 9.92 9 17.84 9 26 C17.63559456 25.98910049 17.63559456 25.98910049 21 22 C21.33 21.01 21.66 20.02 22 19 C22.99 19 23.98 19 25 19 C24.67 21.97 24.34 24.94 24 28 C16.08 28 8.16 28 0 28 C0 27.34 0 26.68 0 26 C0.99 26 1.98 26 3 26 C3 18.08 3 10.16 3 2 C2.01 2 1.02 2 0 2 C0 1.34 0 0.68 0 0 Z " fill="#7E5931" transform="translate(592,525)"/>
<path d="M0 0 C4.29 0 8.58 0 13 0 C12.67 0.66 12.34 1.32 12 2 C11.01 2 10.02 2 9 2 C9 9.92 9 17.84 9 26 C9.99 26 10.98 26 12 26 C12 26.66 12 27.32 12 28 C8.04 28 4.08 28 0 28 C0 27.34 0 26.68 0 26 C1.32 26 2.64 26 4 26 C4 18.08 4 10.16 4 2 C2.68 2 1.36 2 0 2 C0 1.34 0 0.68 0 0 Z " fill="#7D5931" transform="translate(168,525)"/>
<path d="M0 0 C2.75 1 2.75 1 4.125 3.0625 C4.33125 3.701875 4.5375 4.34125 4.75 5 C4.09 5 3.43 5 2.75 5 C2.09 6.65 1.43 8.3 0.75 10 C-1.23 10 -3.21 10 -5.25 10 C-5.25 9.34 -5.25 8.68 -5.25 8 C-7.23 8.66 -9.21 9.32 -11.25 10 C-10.35602162 6.06649514 -9.55850403 4.27344676 -6.5 1.5625 C-3.25 0 -3.25 0 0 0 Z " fill="#002F56" transform="translate(452.25,92)"/>
<path d="M0 0 C1.25348607 2.95106435 1.01044806 3.97406463 -0.21484375 7.015625 C-0.78332031 8.08296875 -1.35179687 9.1503125 -1.9375 10.25 C-2.50339844 11.32765625 -3.06929688 12.4053125 -3.65234375 13.515625 C-4.09707031 14.33546875 -4.54179687 15.1553125 -5 16 C-8.65316671 14.75023244 -9.78065836 14.32901247 -12 11 C-12 9.68 -12 8.36 -12 7 C-11.319375 6.95875 -10.63875 6.9175 -9.9375 6.875 C-5.74484213 5.62612319 -3.1407561 2.95973269 0 0 Z " fill="#002F56" transform="translate(417,149)"/>
</svg>
